<?xml version="1.0" encoding="utf-8" standalone="no"?>
<!DOCTYPE svg PUBLIC "-//W3C//DTD SVG 1.1//EN"
  "http://www.w3.org/Graphics/SVG/1.1/DTD/svg11.dtd">
<svg xmlns:xlink="http://www.w3.org/1999/xlink" width="640.8pt" height="643.034606pt" viewBox="0 0 640.8 643.034606" xmlns="http://www.w3.org/2000/svg" version="1.1">
 <metadata>
  <rdf:RDF xmlns:dc="http://purl.org/dc/elements/1.1/" xmlns:cc="http://creativecommons.org/ns#" xmlns:rdf="http://www.w3.org/1999/02/22-rdf-syntax-ns#">
   <cc:Work>
    <dc:type rdf:resource="http://purl.org/dc/dcmitype/StillImage"/>
    <dc:date>2022-01-01T05:00:00+00:00</dc:date>
    <dc:format>image/svg+xml</dc:format>
    <dc:creator>
     <cc:Agent>
      <dc:title>Matplotlib v3.10.5, https://matplotlib.org/</dc:title>
     </cc:Agent>
    </dc:creator>
   </cc:Work>
  </rdf:RDF>
 </metadata>
 <defs>
  <style type="text/css">*{stroke-linejoin: round; stroke-linecap: butt}</style>
 </defs>
 <g id="figure_1">
  <g id="patch_1">
   <path d="M 0 643.034606 
L 640.8 643.034606 
L 640.8 0 
L 0 0 
z
" style="fill: #ffffff"/>
  </g>
  <g id="axes_1">
   <g id="line2d_1">
    <path d="M 160.32 509.902635 
L 480.48 232.418168 
" clip-path="url(#pff3e6c2fda)" style="fill: none; stroke-dasharray: 8.14,3.52; stroke-dashoffset: 0; stroke: #457b9d; stroke-opacity: 0.7; stroke-width: 2.2"/>
   </g>
   <g id="line2d_2">
    <path d="M 160.32 417.407813 
L 480.48 509.902635 
" clip-path="url(#pff3e6c2fda)" style="fill: none; stroke-dasharray: 8.14,3.52; stroke-dashoffset: 0; stroke: #457b9d; stroke-opacity: 0.7; stroke-width: 2.2"/>
   </g>
   <g id="line2d_3">
    <path d="M 160.32 232.418168 
L 480.48 417.407813 
" clip-path="url(#pff3e6c2fda)" style="fill: none; stroke-dasharray: 8.14,3.52; stroke-dashoffset: 0; stroke: #457b9d; stroke-opacity: 0.7; stroke-width: 2.2"/>
   </g>
   <g id="line2d_4">
    <path d="M 160.32 417.407813 
L 480.48 324.91299 
" clip-path="url(#pff3e6c2fda)" style="fill: none; stroke: #e63946; stroke-opacity: 0.7; stroke-width: 2.8; stroke-linecap: square"/>
   </g>
   <g id="line2d_5">
    <path d="M 160.32 324.91299 
L 480.48 324.91299 
" clip-path="url(#pff3e6c2fda)" style="fill: none; stroke: #e63946; stroke-opacity: 0.7; stroke-width: 2.8; stroke-linecap: square"/>
   </g>
   <g id="text_1">
    <g id="patch_2">
     <path d="M 110.4825 131.509799 
L 154.4775 131.509799 
Q 159.2775 131.509799 159.2775 126.709799 
L 159.2775 102.598049 
Q 159.2775 97.798049 154.4775 97.798049 
L 110.4825 97.798049 
Q 105.6825 97.798049 105.6825 102.598049 
L 105.6825 126.709799 
Q 105.6825 131.509799 110.4825 131.509799 
z
" style="fill: #d8f3dc; stroke: #1b4332; stroke-width: 1.5; stroke-linejoin: miter"/>
    </g>
    <text style="font-weight: 700; font-size: 12px; font-family: 'Liberation Sans', 'Arimo', 'DejaVu Sans'; fill: #1b4332" transform="translate(110.4825 111.294299)">Chain F</text>
    <text style="font-weight: 700; font-size: 12px; font-family: 'Liberation Sans', 'Arimo', 'DejaVu Sans'; fill: #1b4332" transform="translate(111.135937 124.219799)">(TNF-α)</text>
   </g>
   <g id="text_2">
    <g id="patch_3">
     <path d="M 484.992187 131.509799 
L 531.647812 131.509799 
Q 536.447812 131.509799 536.447812 126.709799 
L 536.447812 102.598049 
Q 536.447812 97.798049 531.647812 97.798049 
L 484.992187 97.798049 
Q 480.192187 97.798049 480.192187 102.598049 
L 480.192187 126.709799 
Q 480.192187 131.509799 484.992187 131.509799 
z
" style="fill: #d8f3dc; stroke: #1b4332; stroke-width: 1.5; stroke-linejoin: miter"/>
    </g>
    <text style="font-weight: 700; font-size: 12px; font-family: 'Liberation Sans', 'Arimo', 'DejaVu Sans'; fill: #1b4332" transform="translate(486.3225 111.294299)">Chain L</text>
    <text style="font-weight: 700; font-size: 12px; font-family: 'Liberation Sans', 'Arimo', 'DejaVu Sans'; fill: #1b4332" transform="translate(484.992187 124.219799)">(TNFR1)</text>
   </g>
   <g id="text_3">
    <text style="font-weight: 700; font-size: 12px; font-family: 'Liberation Sans', 'Arimo', 'DejaVu Sans'" transform="translate(202.0575 15.89625)">TNF–TNFR1 Interface: 2D Interaction Map</text>
    <text style="font-weight: 700; font-size: 12px; font-family: 'Liberation Sans', 'Arimo', 'DejaVu Sans'" transform="translate(151.50375 28.82175)">(PDB: 8ZUI, Chains F &amp; L — Canonical Cross-Chain Bonds)</text>
   </g>
   <g id="patch_4">
    <path d="M 132.48 536.329728 
C 139.863254 536.329728 146.945104 533.545202 152.165853 528.589411 
C 157.386602 523.633621 160.32 516.911182 160.32 509.902635 
C 160.32 502.894089 157.386602 496.17165 152.165853 491.215859 
C 146.945104 486.260068 139.863254 483.475543 132.48 483.475543 
C 125.096746 483.475543 118.014896 486.260068 112.794147 491.215859 
C 107.573398 496.17165 104.64 502.894089 104.64 509.902635 
C 104.64 516.911182 107.573398 523.633621 112.794147 528.589411 
C 118.014896 533.545202 125.096746 536.329728 132.48 536.329728 
z
" clip-path="url(#pff3e6c2fda)" style="fill: #4caf50; stroke: #000000; stroke-width: 1.5; stroke-linejoin: miter"/>
   </g>
   <g id="patch_5">
    <path d="M 132.48 443.834905 
C 139.863254 443.834905 146.945104 441.05038 152.165853 436.094589 
C 157.386602 431.138798 160.32 424.41636 160.32 417.407813 
C 160.32 410.399266 157.386602 403.676828 152.165853 398.721037 
C 146.945104 393.765246 139.863254 390.980721 132.48 390.980721 
C 125.096746 390.980721 118.014896 393.765246 112.794147 398.721037 
C 107.573398 403.676828 104.64 410.399266 104.64 417.407813 
C 104.64 424.41636 107.573398 431.138798 112.794147 436.094589 
C 118.014896 441.05038 125.096746 443.834905 132.48 443.834905 
z
" clip-path="url(#pff3e6c2fda)" style="fill: #2196f3; stroke: #000000; stroke-width: 1.5; stroke-linejoin: miter"/>
   </g>
   <g id="patch_6">
    <path d="M 132.48 351.340083 
C 139.863254 351.340083 146.945104 348.555557 152.165853 343.599767 
C 157.386602 338.643976 160.32 331.921537 160.32 324.91299 
C 160.32 317.904444 157.386602 311.182005 152.165853 306.226214 
C 146.945104 301.270423 139.863254 298.485898 132.48 298.485898 
C 125.096746 298.485898 118.014896 301.270423 112.794147 306.226214 
C 107.573398 311.182005 104.64 317.904444 104.64 324.91299 
C 104.64 331.921537 107.573398 338.643976 112.794147 343.599767 
C 118.014896 348.555557 125.096746 351.340083 132.48 351.340083 
z
" clip-path="url(#pff3e6c2fda)" style="fill: #2196f3; stroke: #000000; stroke-width: 1.5; stroke-linejoin: miter"/>
   </g>
   <g id="patch_7">
    <path d="M 132.48 258.84526 
C 139.863254 258.84526 146.945104 256.060735 152.165853 251.104944 
C 157.386602 246.149153 160.32 239.426715 160.32 232.418168 
C 160.32 225.409621 157.386602 218.687183 152.165853 213.731392 
C 146.945104 208.775601 139.863254 205.991076 132.48 205.991076 
C 125.096746 205.991076 118.014896 208.775601 112.794147 213.731392 
C 107.573398 218.687183 104.64 225.409621 104.64 232.418168 
C 104.64 239.426715 107.573398 246.149153 112.794147 251.104944 
C 118.014896 256.060735 125.096746 258.84526 132.48 258.84526 
z
" clip-path="url(#pff3e6c2fda)" style="fill: #f44336; stroke: #000000; stroke-width: 1.5; stroke-linejoin: miter"/>
   </g>
   <g id="patch_8">
    <path d="M 508.32 536.329728 
C 515.703254 536.329728 522.785104 533.545202 528.005853 528.589411 
C 533.226602 523.633621 536.16 516.911182 536.16 509.902635 
C 536.16 502.894089 533.226602 496.17165 528.005853 491.215859 
C 522.785104 486.260068 515.703254 483.475543 508.32 483.475543 
C 500.936746 483.475543 493.854896 486.260068 488.634147 491.215859 
C 483.413398 496.17165 480.48 502.894089 480.48 509.902635 
C 480.48 516.911182 483.413398 523.633621 488.634147 528.589411 
C 493.854896 533.545202 500.936746 536.329728 508.32 536.329728 
z
" clip-path="url(#pff3e6c2fda)" style="fill: #2196f3; stroke: #000000; stroke-width: 1.5; stroke-linejoin: miter"/>
   </g>
   <g id="patch_9">
    <path d="M 508.32 443.834905 
C 515.703254 443.834905 522.785104 441.05038 528.005853 436.094589 
C 533.226602 431.138798 536.16 424.41636 536.16 417.407813 
C 536.16 410.399266 533.226602 403.676828 528.005853 398.721037 
C 522.785104 393.765246 515.703254 390.980721 508.32 390.980721 
C 500.936746 390.980721 493.854896 393.765246 488.634147 398.721037 
C 483.413398 403.676828 480.48 410.399266 480.48 417.407813 
C 480.48 424.41636 483.413398 431.138798 488.634147 436.094589 
C 493.854896 441.05038 500.936746 443.834905 508.32 443.834905 
z
" clip-path="url(#pff3e6c2fda)" style="fill: #9e9e9e; stroke: #000000; stroke-width: 1.5; stroke-linejoin: miter"/>
   </g>
   <g id="patch_10">
    <path d="M 508.32 351.340083 
C 515.703254 351.340083 522.785104 348.555557 528.005853 343.599767 
C 533.226602 338.643976 536.16 331.921537 536.16 324.91299 
C 536.16 317.904444 533.226602 311.182005 528.005853 306.226214 
C 522.785104 301.270423 515.703254 298.485898 508.32 298.485898 
C 500.936746 298.485898 493.854896 301.270423 488.634147 306.226214 
C 483.413398 311.182005 480.48 317.904444 480.48 324.91299 
C 480.48 331.921537 483.413398 338.643976 488.634147 343.599767 
C 493.854896 348.555557 500.936746 351.340083 508.32 351.340083 
z
" clip-path="url(#pff3e6c2fda)" style="fill: #f44336; stroke: #000000; stroke-width: 1.5; stroke-linejoin: miter"/>
   </g>
   <g id="patch_11">
    <path d="M 508.32 258.84526 
C 515.703254 258.84526 522.785104 256.060735 528.005853 251.104944 
C 533.226602 246.149153 536.16 239.426715 536.16 232.418168 
C 536.16 225.409621 533.226602 218.687183 528.005853 213.731392 
C 522.785104 208.775601 515.703254 205.991076 508.32 205.991076 
C 500.936746 205.991076 493.854896 208.775601 488.634147 213.731392 
C 483.413398 218.687183 480.48 225.409621 480.48 232.418168 
C 480.48 239.426715 483.413398 246.149153 488.634147 251.104944 
C 493.854896 256.060735 500.936746 258.84526 508.32 258.84526 
z
" clip-path="url(#pff3e6c2fda)" style="fill: #f44336; stroke: #000000; stroke-width: 1.5; stroke-linejoin: miter"/>
   </g>
   <g id="text_4">
    <text style="font-weight: 700; font-size: 9.5px; font-family: 'Liberation Sans', 'Arimo', 'DejaVu Sans'; text-anchor: middle; fill: #ffffff" x="132.48" y="512.359276" transform="rotate(-0 132.48 512.359276)">GLN46</text>
   </g>
   <g id="text_5">
    <text style="font-weight: 700; font-size: 9.5px; font-family: 'Liberation Sans', 'Arimo', 'DejaVu Sans'; text-anchor: middle; fill: #ffffff" x="132.48" y="419.864454" transform="rotate(-0 132.48 419.864454)">HIS63</text>
   </g>
   <g id="text_6">
    <text style="font-weight: 700; font-size: 9.5px; font-family: 'Liberation Sans', 'Arimo', 'DejaVu Sans'; text-anchor: middle; fill: #ffffff" x="132.48" y="327.369631" transform="rotate(-0 132.48 327.369631)">LYS64</text>
   </g>
   <g id="text_7">
    <text style="font-weight: 700; font-size: 9.5px; font-family: 'Liberation Sans', 'Arimo', 'DejaVu Sans'; text-anchor: middle; fill: #ffffff" x="132.48" y="234.874809" transform="rotate(-0 132.48 234.874809)">ASP78</text>
   </g>
   <g id="text_8">
    <text style="font-weight: 700; font-size: 9.5px; font-family: 'Liberation Sans', 'Arimo', 'DejaVu Sans'; text-anchor: middle; fill: #ffffff" x="508.32" y="512.359276" transform="rotate(-0 508.32 512.359276)">LYS61</text>
   </g>
   <g id="text_9">
    <text style="font-weight: 700; font-size: 9.5px; font-family: 'Liberation Sans', 'Arimo', 'DejaVu Sans'; text-anchor: middle; fill: #ffffff" x="508.32" y="419.864454" transform="rotate(-0 508.32 419.864454)">GLY76</text>
   </g>
   <g id="text_10">
    <text style="font-weight: 700; font-size: 9.5px; font-family: 'Liberation Sans', 'Arimo', 'DejaVu Sans'; text-anchor: middle; fill: #ffffff" x="508.32" y="327.369631" transform="rotate(-0 508.32 327.369631)">GLU93</text>
   </g>
   <g id="text_11">
    <text style="font-weight: 700; font-size: 9.5px; font-family: 'Liberation Sans', 'Arimo', 'DejaVu Sans'; text-anchor: middle; fill: #ffffff" x="508.32" y="234.874809" transform="rotate(-0 508.32 234.874809)">ASP120</text>
   </g>
   <g id="legend_1">
    <g id="patch_12">
     <path d="M 191.584453 635.834606 
L 449.215547 635.834606 
Q 451.115547 635.834606 451.115547 633.934606 
L 451.115547 594.067262 
Q 451.115547 592.167262 449.215547 592.167262 
L 191.584453 592.167262 
Q 189.684453 592.167262 189.684453 594.067262 
L 189.684453 633.934606 
Q 189.684453 635.834606 191.584453 635.834606 
z
" style="fill: #ffffff; opacity: 0.8; stroke: #808080; stroke-linejoin: miter"/>
    </g>
    <g id="patch_13">
     <path d="M 193.484453 602.851794 
L 212.484453 602.851794 
L 212.484453 596.201794 
L 193.484453 596.201794 
z
" style="fill: #2196f3; stroke: #2196f3; stroke-linejoin: miter"/>
    </g>
    <g id="text_12">
     <text style="font-size: 9.5px; font-family: 'Liberation Sans', 'Arimo', 'DejaVu Sans'; text-anchor: start" x="220.084453" y="602.851794" transform="rotate(-0 220.084453 602.851794)">Positively charged (K, R, H)</text>
    </g>
    <g id="patch_14">
     <path d="M 193.484453 616.457575 
L 212.484453 616.457575 
L 212.484453 609.807575 
L 193.484453 609.807575 
z
" style="fill: #f44336; stroke: #f44336; stroke-linejoin: miter"/>
    </g>
    <g id="text_13">
     <text style="font-size: 9.5px; font-family: 'Liberation Sans', 'Arimo', 'DejaVu Sans'; text-anchor: start" x="220.084453" y="616.457575" transform="rotate(-0 220.084453 616.457575)">Negatively charged (D, E)</text>
    </g>
    <g id="patch_15">
     <path d="M 193.484453 630.063356 
L 212.484453 630.063356 
L 212.484453 623.413356 
L 193.484453 623.413356 
z
" style="fill: #4caf50; stroke: #4caf50; stroke-linejoin: miter"/>
    </g>
    <g id="text_14">
     <text style="font-size: 9.5px; font-family: 'Liberation Sans', 'Arimo', 'DejaVu Sans'; text-anchor: start" x="220.084453" y="630.063356" transform="rotate(-0 220.084453 630.063356)">Polar (Q, N, S, T)</text>
    </g>
    <g id="patch_16">
     <path d="M 355.756328 602.851794 
L 374.756328 602.851794 
L 374.756328 596.201794 
L 355.756328 596.201794 
z
" style="fill: #9e9e9e; stroke: #9e9e9e; stroke-linejoin: miter"/>
    </g>
    <g id="text_15">
     <text style="font-size: 9.5px; font-family: 'Liberation Sans', 'Arimo', 'DejaVu Sans'; text-anchor: start" x="382.356328" y="602.851794" transform="rotate(-0 382.356328 602.851794)">Glycine</text>
    </g>
    <g id="line2d_6">
     <path d="M 355.756328 613.132575 
L 365.256328 613.132575 
L 374.756328 613.132575 
" style="fill: none; stroke-dasharray: 7.4,3.2; stroke-dashoffset: 0; stroke: #457b9d; stroke-width: 2"/>
    </g>
    <g id="text_16">
     <text style="font-size: 9.5px; font-family: 'Liberation Sans', 'Arimo', 'DejaVu Sans'; text-anchor: start" x="382.356328" y="616.457575" transform="rotate(-0 382.356328 616.457575)">Hydrogen bond</text>
    </g>
    <g id="line2d_7">
     <path d="M 355.756328 626.738356 
L 365.256328 626.738356 
L 374.756328 626.738356 
" style="fill: none; stroke: #e63946; stroke-width: 2.5; stroke-linecap: square"/>
    </g>
    <g id="text_17">
     <text style="font-size: 9.5px; font-family: 'Liberation Sans', 'Arimo', 'DejaVu Sans'; text-anchor: start" x="382.356328" y="630.063356" transform="rotate(-0 382.356328 630.063356)">Salt bridge</text>
    </g>
   </g>
   <g id="text_18">
    <g id="patch_17">
     <path d="M 259.855102 418.444869 
L 284.896898 418.444869 
Q 286.596898 418.444869 286.596898 416.744869 
L 286.596898 408.821275 
Q 286.596898 407.121275 284.896898 407.121275 
L 259.855102 407.121275 
Q 258.155102 407.121275 258.155102 408.821275 
L 258.155102 416.744869 
Q 258.155102 418.444869 259.855102 418.444869 
z
" style="fill: #ffffff; opacity: 0.95; stroke: #457b9d; stroke-width: 0.8; stroke-linejoin: miter"/>
    </g>
    <text style="font-weight: 700; font-size: 8.5px; font-family: 'Liberation Sans', 'Arimo', 'DejaVu Sans'; text-anchor: middle; fill: #457b9d" x="272.376" y="414.981119" transform="rotate(-0 272.376 414.981119)">2.87 Å</text>
   </g>
   <g id="text_19">
    <g id="patch_18">
     <path d="M 259.855102 455.442798 
L 284.896898 455.442798 
Q 286.596898 455.442798 286.596898 453.742798 
L 286.596898 445.819204 
Q 286.596898 444.119204 284.896898 444.119204 
L 259.855102 444.119204 
Q 258.155102 444.119204 258.155102 445.819204 
L 258.155102 453.742798 
Q 258.155102 455.442798 259.855102 455.442798 
z
" style="fill: #ffffff; opacity: 0.95; stroke: #457b9d; stroke-width: 0.8; stroke-linejoin: miter"/>
    </g>
    <text style="font-weight: 700; font-size: 8.5px; font-family: 'Liberation Sans', 'Arimo', 'DejaVu Sans'; text-anchor: middle; fill: #457b9d" x="272.376" y="451.979048" transform="rotate(-0 272.376 451.979048)">2.54 Å</text>
   </g>
   <g id="text_20">
    <g id="patch_19">
     <path d="M 259.855102 302.826341 
L 284.896898 302.826341 
Q 286.596898 302.826341 286.596898 301.126341 
L 286.596898 293.202747 
Q 286.596898 291.502747 284.896898 291.502747 
L 259.855102 291.502747 
Q 258.155102 291.502747 258.155102 293.202747 
L 258.155102 301.126341 
Q 258.155102 302.826341 259.855102 302.826341 
z
" style="fill: #ffffff; opacity: 0.95; stroke: #457b9d; stroke-width: 0.8; stroke-linejoin: miter"/>
    </g>
    <text style="font-weight: 700; font-size: 8.5px; font-family: 'Liberation Sans', 'Arimo', 'DejaVu Sans'; text-anchor: middle; fill: #457b9d" x="272.376" y="299.362591" transform="rotate(-0 272.376 299.362591)">2.92 Å</text>
   </g>
   <g id="text_21">
    <g id="patch_20">
     <path d="M 259.855102 390.696422 
L 284.896898 390.696422 
Q 286.596898 390.696422 286.596898 388.996422 
L 286.596898 381.072828 
Q 286.596898 379.372828 284.896898 379.372828 
L 259.855102 379.372828 
Q 258.155102 379.372828 258.155102 381.072828 
L 258.155102 388.996422 
Q 258.155102 390.696422 259.855102 390.696422 
z
" style="fill: #ffffff; opacity: 0.95; stroke: #e63946; stroke-width: 0.8; stroke-linejoin: miter"/>
    </g>
    <text style="font-weight: 700; font-size: 8.5px; font-family: 'Liberation Sans', 'Arimo', 'DejaVu Sans'; text-anchor: middle; fill: #e63946" x="272.376" y="387.232672" transform="rotate(-0 272.376 387.232672)">2.87 Å</text>
   </g>
   <g id="text_22">
    <g id="patch_21">
     <path d="M 259.855102 330.574787 
L 284.896898 330.574787 
Q 286.596898 330.574787 286.596898 328.874787 
L 286.596898 320.951194 
Q 286.596898 319.251194 284.896898 319.251194 
L 259.855102 319.251194 
Q 258.155102 319.251194 258.155102 320.951194 
L 258.155102 328.874787 
Q 258.155102 330.574787 259.855102 330.574787 
z
" style="fill: #ffffff; opacity: 0.95; stroke: #e63946; stroke-width: 0.8; stroke-linejoin: miter"/>
    </g>
    <text style="font-weight: 700; font-size: 8.5px; font-family: 'Liberation Sans', 'Arimo', 'DejaVu Sans'; text-anchor: middle; fill: #e63946" x="272.376" y="327.111037" transform="rotate(-0 272.376 327.111037)">2.75 Å</text>
   </g>
  </g>
 </g>
 <defs>
  <clipPath id="pff3e6c2fda">
   <rect x="7.2" y="40.82175" width="626.4" height="588.0028"/>
  </clipPath>
 </defs>
</svg>
