<?xml version="1.0" encoding="utf-8" standalone="no"?>
<!DOCTYPE svg PUBLIC "-//W3C//DTD SVG 1.1//EN"
  "http://www.w3.org/Graphics/SVG/1.1/DTD/svg11.dtd">
<svg xmlns:xlink="http://www.w3.org/1999/xlink" width="925.95615pt" height="413.82pt" viewBox="0 0 925.95615 413.82" xmlns="http://www.w3.org/2000/svg" version="1.1">
 <metadata>
  <rdf:RDF xmlns:dc="http://purl.org/dc/elements/1.1/" xmlns:cc="http://creativecommons.org/ns#" xmlns:rdf="http://www.w3.org/1999/02/22-rdf-syntax-ns#">
   <cc:Work>
    <dc:type rdf:resource="http://purl.org/dc/dcmitype/StillImage"/>
    <dc:date>2022-01-01T05:00:00+00:00</dc:date>
    <dc:format>image/svg+xml</dc:format>
    <dc:creator>
     <cc:Agent>
      <dc:title>Matplotlib v3.10.5, https://matplotlib.org/</dc:title>
     </cc:Agent>
    </dc:creator>
   </cc:Work>
  </rdf:RDF>
 </metadata>
 <defs>
  <style type="text/css">*{stroke-linejoin: round; stroke-linecap: butt}</style>
 </defs>
 <g id="figure_1">
  <g id="patch_1">
   <path d="M 0 413.82 
L 925.95615 413.82 
L 925.95615 0 
L 0 0 
z
" style="fill: #ffffff"/>
  </g>
  <g id="axes_1">
   <g id="patch_2">
    <path d="M 48.194688 351.89125 
L 447.052291 351.89125 
L 447.052291 61.872 
L 48.194688 61.872 
z
" style="fill: #ffffff"/>
   </g>
   <g id="matplotlib.axis_1">
    <g id="xtick_1">
     <g id="line2d_1">
      <defs>
       <path id="m1cc5701562" d="M 0 0 
L 0 3.5 
" style="stroke: #000000; stroke-width: 0.8"/>
      </defs>
      <g>
       <use xlink:href="#m1cc5701562" x="65.790168" y="351.89125" style="stroke: #000000; stroke-width: 0.8"/>
      </g>
     </g>
     <g id="text_1">
      <text style="font-size: 10px; font-family: 'Liberation Sans', 'Arimo', 'DejaVu Sans'; text-anchor: middle" x="65.790168" y="366.138125" transform="rotate(-0 65.790168 366.138125)">0</text>
     </g>
    </g>
    <g id="xtick_2">
     <g id="line2d_2">
      <g>
       <use xlink:href="#m1cc5701562" x="119.231261" y="351.89125" style="stroke: #000000; stroke-width: 0.8"/>
      </g>
     </g>
     <g id="text_2">
      <text style="font-size: 10px; font-family: 'Liberation Sans', 'Arimo', 'DejaVu Sans'; text-anchor: middle" x="119.231261" y="366.138125" transform="rotate(-0 119.231261 366.138125)">20</text>
     </g>
    </g>
    <g id="xtick_3">
     <g id="line2d_3">
      <g>
       <use xlink:href="#m1cc5701562" x="172.672355" y="351.89125" style="stroke: #000000; stroke-width: 0.8"/>
      </g>
     </g>
     <g id="text_3">
      <text style="font-size: 10px; font-family: 'Liberation Sans', 'Arimo', 'DejaVu Sans'; text-anchor: middle" x="172.672355" y="366.138125" transform="rotate(-0 172.672355 366.138125)">40</text>
     </g>
    </g>
    <g id="xtick_4">
     <g id="line2d_4">
      <g>
       <use xlink:href="#m1cc5701562" x="226.113449" y="351.89125" style="stroke: #000000; stroke-width: 0.8"/>
      </g>
     </g>
     <g id="text_4">
      <text style="font-size: 10px; font-family: 'Liberation Sans', 'Arimo', 'DejaVu Sans'; text-anchor: middle" x="226.113449" y="366.138125" transform="rotate(-0 226.113449 366.138125)">60</text>
     </g>
    </g>
    <g id="xtick_5">
     <g id="line2d_5">
      <g>
       <use xlink:href="#m1cc5701562" x="279.554543" y="351.89125" style="stroke: #000000; stroke-width: 0.8"/>
      </g>
     </g>
     <g id="text_5">
      <text style="font-size: 10px; font-family: 'Liberation Sans', 'Arimo', 'DejaVu Sans'; text-anchor: middle" x="279.554543" y="366.138125" transform="rotate(-0 279.554543 366.138125)">80</text>
     </g>
    </g>
    <g id="xtick_6">
     <g id="line2d_6">
      <g>
       <use xlink:href="#m1cc5701562" x="332.995636" y="351.89125" style="stroke: #000000; stroke-width: 0.8"/>
      </g>
     </g>
     <g id="text_6">
      <text style="font-size: 10px; font-family: 'Liberation Sans', 'Arimo', 'DejaVu Sans'; text-anchor: middle" x="332.995636" y="366.138125" transform="rotate(-0 332.995636 366.138125)">100</text>
     </g>
    </g>
    <g id="xtick_7">
     <g id="line2d_7">
      <g>
       <use xlink:href="#m1cc5701562" x="386.43673" y="351.89125" style="stroke: #000000; stroke-width: 0.8"/>
      </g>
     </g>
     <g id="text_7">
      <text style="font-size: 10px; font-family: 'Liberation Sans', 'Arimo', 'DejaVu Sans'; text-anchor: middle" x="386.43673" y="366.138125" transform="rotate(-0 386.43673 366.138125)">120</text>
     </g>
    </g>
    <g id="xtick_8">
     <g id="line2d_8">
      <g>
       <use xlink:href="#m1cc5701562" x="439.877824" y="351.89125" style="stroke: #000000; stroke-width: 0.8"/>
      </g>
     </g>
     <g id="text_8">
      <text style="font-size: 10px; font-family: 'Liberation Sans', 'Arimo', 'DejaVu Sans'; text-anchor: middle" x="439.877824" y="366.138125" transform="rotate(-0 439.877824 366.138125)">140</text>
     </g>
    </g>
    <g id="text_9">
     <text style="font-size: 11px; font-family: 'Liberation Sans', 'Arimo', 'DejaVu Sans'; text-anchor: middle" x="247.623489" y="381.805469" transform="rotate(-0 247.623489 381.805469)">Buried Surface Area (Å²)</text>
    </g>
   </g>
   <g id="matplotlib.axis_2">
    <g id="ytick_1">
     <g id="line2d_9">
      <defs>
       <path id="ma7034f1485" d="M 0 0 
L -3.5 0 
" style="stroke: #000000; stroke-width: 0.8"/>
      </defs>
      <g>
       <use xlink:href="#ma7034f1485" x="48.194688" y="304.129012" style="stroke: #000000; stroke-width: 0.8"/>
      </g>
     </g>
     <g id="text_10">
      <text style="font-size: 10px; font-family: 'Liberation Sans', 'Arimo', 'DejaVu Sans'; text-anchor: end" x="41.194688" y="307.752449" transform="rotate(-0 41.194688 307.752449)">−1.0</text>
     </g>
    </g>
    <g id="ytick_2">
     <g id="line2d_10">
      <g>
       <use xlink:href="#ma7034f1485" x="48.194688" y="243.463144" style="stroke: #000000; stroke-width: 0.8"/>
      </g>
     </g>
     <g id="text_11">
      <text style="font-size: 10px; font-family: 'Liberation Sans', 'Arimo', 'DejaVu Sans'; text-anchor: end" x="41.194688" y="247.086581" transform="rotate(-0 41.194688 247.086581)">−0.5</text>
     </g>
    </g>
    <g id="ytick_3">
     <g id="line2d_11">
      <g>
       <use xlink:href="#ma7034f1485" x="48.194688" y="182.797275" style="stroke: #000000; stroke-width: 0.8"/>
      </g>
     </g>
     <g id="text_12">
      <text style="font-size: 10px; font-family: 'Liberation Sans', 'Arimo', 'DejaVu Sans'; text-anchor: end" x="41.194688" y="186.420713" transform="rotate(-0 41.194688 186.420713)">0.0</text>
     </g>
    </g>
    <g id="ytick_4">
     <g id="line2d_12">
      <g>
       <use xlink:href="#ma7034f1485" x="48.194688" y="122.131407" style="stroke: #000000; stroke-width: 0.8"/>
      </g>
     </g>
     <g id="text_13">
      <text style="font-size: 10px; font-family: 'Liberation Sans', 'Arimo', 'DejaVu Sans'; text-anchor: end" x="41.194688" y="125.754844" transform="rotate(-0 41.194688 125.754844)">0.5</text>
     </g>
    </g>
    <g id="text_14">
     <text style="font-size: 11px; font-family: 'Liberation Sans', 'Arimo', 'DejaVu Sans'; text-anchor: middle" x="15.171563" y="206.881625" transform="rotate(-90 15.171563 206.881625)">Solvation Energy Contribution (kcal/mol)</text>
    </g>
   </g>
   <g id="line2d_13">
    <path d="M 48.194688 182.797275 
L 447.052291 182.797275 
" clip-path="url(#pe81f534073)" style="fill: none; stroke-dasharray: 2.96,1.28; stroke-dashoffset: 0; stroke: #808080; stroke-opacity: 0.6; stroke-width: 0.8"/>
   </g>
   <g id="line2d_14">
    <path d="M 145.951808 351.89125 
L 145.951808 61.872 
" clip-path="url(#pe81f534073)" style="fill: none; stroke-dasharray: 0.8,1.32; stroke-dashoffset: 0; stroke: #808080; stroke-opacity: 0.6; stroke-width: 0.8"/>
   </g>
   <g id="patch_3">
    <path d="M 48.194688 351.89125 
L 48.194688 61.872 
" style="fill: none; stroke: #000000; stroke-width: 0.8; stroke-linejoin: miter; stroke-linecap: square"/>
   </g>
   <g id="patch_4">
    <path d="M 48.194688 351.89125 
L 447.052291 351.89125 
" style="fill: none; stroke: #000000; stroke-width: 0.8; stroke-linejoin: miter; stroke-linecap: square"/>
   </g>
   <g id="PathCollection_1">
    <path d="M 128.316247 141.251625 
C 129.364794 141.251625 130.370536 140.835032 131.111971 140.093598 
C 131.853406 139.352163 132.269998 138.346421 132.269998 137.297874 
C 132.269998 136.249327 131.853406 135.243585 131.111971 134.50215 
C 130.370536 133.760716 129.364794 133.344124 128.316247 133.344124 
C 127.2677 133.344124 126.261958 133.760716 125.520524 134.50215 
C 124.779089 135.243585 124.362497 136.249327 124.362497 137.297874 
C 124.362497 138.346421 124.779089 139.352163 125.520524 140.093598 
C 126.261958 140.835032 127.2677 141.251625 128.316247 141.251625 
z
" clip-path="url(#pe81f534073)" style="fill: #a8dadc; fill-opacity: 0.85; stroke: #000000; stroke-opacity: 0.85; stroke-width: 0.6"/>
    <path d="M 383.49747 289.184173 
C 385.326012 289.184173 387.079908 288.457686 388.372882 287.164711 
C 389.665857 285.871737 390.392344 284.117841 390.392344 282.289299 
C 390.392344 280.460757 389.665857 278.706862 388.372882 277.413887 
C 387.079908 276.120913 385.326012 275.394425 383.49747 275.394425 
C 381.668928 275.394425 379.915032 276.120913 378.622058 277.413887 
C 377.329084 278.706862 376.602596 280.460757 376.602596 282.289299 
C 376.602596 284.117841 377.329084 285.871737 378.622058 287.164711 
C 379.915032 288.457686 381.668928 289.184173 383.49747 289.184173 
z
" clip-path="url(#pe81f534073)" style="fill: #457b9d; fill-opacity: 0.85; stroke: #000000; stroke-opacity: 0.85; stroke-width: 0.6"/>
    <path d="M 124.04096 156.508107 
C 125.016846 156.508107 125.952895 156.120383 126.642951 155.430327 
C 127.333007 154.740271 127.720731 153.804223 127.720731 152.828336 
C 127.720731 151.85245 127.333007 150.916401 126.642951 150.226345 
C 125.952895 149.536289 125.016846 149.148565 124.04096 149.148565 
C 123.065073 149.148565 122.129025 149.536289 121.438969 150.226345 
C 120.748913 150.916401 120.361189 151.85245 120.361189 152.828336 
C 120.361189 153.804223 120.748913 154.740271 121.438969 155.430327 
C 122.129025 156.120383 123.065073 156.508107 124.04096 156.508107 
z
" clip-path="url(#pe81f534073)" style="fill: #a8dadc; fill-opacity: 0.85; stroke: #000000; stroke-opacity: 0.85; stroke-width: 0.6"/>
    <path d="M 83.692934 216.466168 
C 84.609818 216.466168 85.489273 216.101886 86.137608 215.453551 
C 86.785943 214.805216 87.150224 213.925762 87.150224 213.008878 
C 87.150224 212.091994 86.785943 211.212539 86.137608 210.564204 
C 85.489273 209.915869 84.609818 209.551587 83.692934 209.551587 
C 82.77605 209.551587 81.896596 209.915869 81.248261 210.564204 
C 80.599926 211.212539 80.235644 212.091994 80.235644 213.008878 
C 80.235644 213.925762 80.599926 214.805216 81.248261 215.453551 
C 81.896596 216.101886 82.77605 216.466168 83.692934 216.466168 
z
" clip-path="url(#pe81f534073)" style="fill: #a8dadc; fill-opacity: 0.85; stroke: #000000; stroke-opacity: 0.85; stroke-width: 0.6"/>
    <path d="M 186.299834 128.618653 
C 187.473253 128.618653 188.598771 128.152449 189.428503 127.322716 
C 190.258236 126.492983 190.724441 125.367466 190.724441 124.194047 
C 190.724441 123.020627 190.258236 121.89511 189.428503 121.065377 
C 188.598771 120.235644 187.473253 119.76944 186.299834 119.76944 
C 185.126415 119.76944 184.000898 120.235644 183.171165 121.065377 
C 182.341432 121.89511 181.875228 123.020627 181.875228 124.194047 
C 181.875228 125.367466 182.341432 126.492983 183.171165 127.322716 
C 184.000898 128.152449 185.126415 128.618653 186.299834 128.618653 
z
" clip-path="url(#pe81f534073)" style="fill: #a8dadc; fill-opacity: 0.85; stroke: #000000; stroke-opacity: 0.85; stroke-width: 0.6"/>
    <path d="M 84.49455 190.691124 
C 85.783585 190.691124 87.019997 190.178985 87.931482 189.2675 
C 88.842967 188.356016 89.355106 187.119603 89.355106 185.830569 
C 89.355106 184.541534 88.842967 183.305122 87.931482 182.393637 
C 87.019997 181.482152 85.783585 180.970013 84.49455 180.970013 
C 83.205516 180.970013 81.969104 181.482152 81.057619 182.393637 
C 80.146134 183.305122 79.633995 184.541534 79.633995 185.830569 
C 79.633995 187.119603 80.146134 188.356016 81.057619 189.2675 
C 81.969104 190.178985 83.205516 190.691124 84.49455 190.691124 
z
" clip-path="url(#pe81f534073)" style="fill: #457b9d; fill-opacity: 0.85; stroke: #000000; stroke-opacity: 0.85; stroke-width: 0.6"/>
    <path d="M 66.324579 185.302598 
C 67.053353 185.302598 67.752377 185.013053 68.267698 184.497732 
C 68.78302 183.98241 69.072565 183.283386 69.072565 182.554612 
C 69.072565 181.825837 68.78302 181.126813 68.267698 180.611492 
C 67.752377 180.096171 67.053353 179.806626 66.324579 179.806626 
C 65.595804 179.806626 64.89678 180.096171 64.381459 180.611492 
C 63.866137 181.126813 63.576592 181.825837 63.576592 182.554612 
C 63.576592 183.283386 63.866137 183.98241 64.381459 184.497732 
C 64.89678 185.013053 65.595804 185.302598 66.324579 185.302598 
z
" clip-path="url(#pe81f534073)" style="fill: #a8dadc; fill-opacity: 0.85; stroke: #000000; stroke-opacity: 0.85; stroke-width: 0.6"/>
    <path d="M 428.9224 83.591713 
C 431.186444 83.591713 433.358064 82.692199 434.958985 81.091278 
C 436.559906 79.490357 437.45942 77.318737 437.45942 75.054693 
C 437.45942 72.790649 436.559906 70.619029 434.958985 69.018108 
C 433.358064 67.417187 431.186444 66.517673 428.9224 66.517673 
C 426.658356 66.517673 424.486736 67.417187 422.885815 69.018108 
C 421.284894 70.619029 420.38538 72.790649 420.38538 75.054693 
C 420.38538 77.318737 421.284894 79.490357 422.885815 81.091278 
C 424.486736 82.692199 426.658356 83.591713 428.9224 83.591713 
z
" clip-path="url(#pe81f534073)" style="fill: #e63946; fill-opacity: 0.85; stroke: #000000; stroke-opacity: 0.85; stroke-width: 0.6"/>
    <path d="M 219.166107 346.153354 
C 221.14049 346.153354 223.034273 345.368923 224.430373 343.972823 
C 225.826473 342.576723 226.610904 340.68294 226.610904 338.708557 
C 226.610904 336.734174 225.826473 334.84039 224.430373 333.44429 
C 223.034273 332.048191 221.14049 331.26376 219.166107 331.26376 
C 217.191724 331.26376 215.29794 332.048191 213.90184 333.44429 
C 212.505741 334.84039 211.72131 336.734174 211.72131 338.708557 
C 211.72131 340.68294 212.505741 342.576723 213.90184 343.972823 
C 215.29794 345.368923 217.191724 346.153354 219.166107 346.153354 
z
" clip-path="url(#pe81f534073)" style="fill: #f4a261; fill-opacity: 0.85; stroke: #000000; stroke-opacity: 0.85; stroke-width: 0.6"/>
    <path d="M 78.081619 178.855901 
C 78.870475 178.855901 79.627128 178.542485 80.184933 177.98468 
C 80.742738 177.426875 81.056154 176.670222 81.056154 175.881366 
C 81.056154 175.09251 80.742738 174.335858 80.184933 173.778053 
C 79.627128 173.220247 78.870475 172.906832 78.081619 172.906832 
C 77.292763 172.906832 76.536111 173.220247 75.978305 173.778053 
C 75.4205 174.335858 75.107084 175.09251 75.107084 175.881366 
C 75.107084 176.670222 75.4205 177.426875 75.978305 177.98468 
C 76.536111 178.542485 77.292763 178.855901 78.081619 178.855901 
z
" clip-path="url(#pe81f534073)" style="fill: #a8dadc; fill-opacity: 0.85; stroke: #000000; stroke-opacity: 0.85; stroke-width: 0.6"/>
    <path d="M 134.996384 136.506624 
C 136.073644 136.506624 137.106927 136.078624 137.868665 135.316886 
C 138.630403 134.555148 139.058403 133.521865 139.058403 132.444605 
C 139.058403 131.367345 138.630403 130.334061 137.868665 129.572323 
C 137.106927 128.810585 136.073644 128.382585 134.996384 128.382585 
C 133.919124 128.382585 132.885841 128.810585 132.124103 129.572323 
C 131.362365 130.334061 130.934365 131.367345 130.934365 132.444605 
C 130.934365 133.521865 131.362365 134.555148 132.124103 135.316886 
C 132.885841 136.078624 133.919124 136.506624 134.996384 136.506624 
z
" clip-path="url(#pe81f534073)" style="fill: #a8dadc; fill-opacity: 0.85; stroke: #000000; stroke-opacity: 0.85; stroke-width: 0.6"/>
    <path d="M 194.048793 198.242552 
C 195.474191 198.242552 196.841401 197.676235 197.84931 196.668326 
C 198.857218 195.660417 199.423535 194.293208 199.423535 192.867809 
C 199.423535 191.442411 198.857218 190.075201 197.84931 189.067293 
C 196.841401 188.059384 195.474191 187.493067 194.048793 187.493067 
C 192.623394 187.493067 191.256185 188.059384 190.248276 189.067293 
C 189.240367 190.075201 188.67405 191.442411 188.67405 192.867809 
C 188.67405 194.293208 189.240367 195.660417 190.248276 196.668326 
C 191.256185 197.676235 192.623394 198.242552 194.048793 198.242552 
z
" clip-path="url(#pe81f534073)" style="fill: #457b9d; fill-opacity: 0.85; stroke: #000000; stroke-opacity: 0.85; stroke-width: 0.6"/>
    <path d="M 145.150192 181.779279 
C 146.038608 181.779279 146.890757 181.426308 147.518962 180.798103 
C 148.147167 180.169898 148.500139 179.317749 148.500139 178.429333 
C 148.500139 177.540917 148.147167 176.688768 147.518962 176.060563 
C 146.890757 175.432358 146.038608 175.079386 145.150192 175.079386 
C 144.261776 175.079386 143.409627 175.432358 142.781422 176.060563 
C 142.153217 176.688768 141.800245 177.540917 141.800245 178.429333 
C 141.800245 179.317749 142.153217 180.169898 142.781422 180.798103 
C 143.409627 181.426308 144.261776 181.779279 145.150192 181.779279 
z
" clip-path="url(#pe81f534073)" style="fill: #a8dadc; fill-opacity: 0.85; stroke: #000000; stroke-opacity: 0.85; stroke-width: 0.6"/>
    <path d="M 244.016215 149.960281 
C 245.572382 149.960281 247.065022 149.34201 248.165398 148.241634 
C 249.265774 147.141258 249.884045 145.648618 249.884045 144.092451 
C 249.884045 142.536285 249.265774 141.043645 248.165398 139.943269 
C 247.065022 138.842893 245.572382 138.224621 244.016215 138.224621 
C 242.460049 138.224621 240.967409 138.842893 239.867033 139.943269 
C 238.766657 141.043645 238.148385 142.536285 238.148385 144.092451 
C 238.148385 145.648618 238.766657 147.141258 239.867033 148.241634 
C 240.967409 149.34201 242.460049 149.960281 244.016215 149.960281 
z
" clip-path="url(#pe81f534073)" style="fill: #457b9d; fill-opacity: 0.85; stroke: #000000; stroke-opacity: 0.85; stroke-width: 0.6"/>
    <path d="M 82.089701 194.324236 
C 82.894258 194.324236 83.665971 194.004582 84.234879 193.435674 
C 84.803786 192.866766 85.12344 192.095054 85.12344 191.290497 
C 85.12344 190.48594 84.803786 189.714227 84.234879 189.14532 
C 83.665971 188.576412 82.894258 188.256758 82.089701 188.256758 
C 81.285144 188.256758 80.513432 188.576412 79.944524 189.14532 
C 79.375616 189.714227 79.055962 190.48594 79.055962 191.290497 
C 79.055962 192.095054 79.375616 192.866766 79.944524 193.435674 
C 80.513432 194.004582 81.285144 194.324236 82.089701 194.324236 
z
" clip-path="url(#pe81f534073)" style="fill: #a8dadc; fill-opacity: 0.85; stroke: #000000; stroke-opacity: 0.85; stroke-width: 0.6"/>
    <path d="M 82.089701 158.416507 
C 82.992505 158.416507 83.858455 158.057819 84.496833 157.41944 
C 85.135212 156.781061 85.4939 155.915112 85.4939 155.012308 
C 85.4939 154.109503 85.135212 153.243554 84.496833 152.605175 
C 83.858455 151.966796 82.992505 151.608109 82.089701 151.608109 
C 81.186897 151.608109 80.320948 151.966796 79.682569 152.605175 
C 79.04419 153.243554 78.685502 154.109503 78.685502 155.012308 
C 78.685502 155.915112 79.04419 156.781061 79.682569 157.41944 
C 80.320948 158.057819 81.186897 158.416507 82.089701 158.416507 
z
" clip-path="url(#pe81f534073)" style="fill: #a8dadc; fill-opacity: 0.85; stroke: #000000; stroke-opacity: 0.85; stroke-width: 0.6"/>
    <path d="M 148.623863 170.955557 
C 149.569952 170.955557 150.477418 170.579672 151.146404 169.910686 
C 151.81539 169.2417 152.191275 168.334233 152.191275 167.388145 
C 152.191275 166.442056 151.81539 165.534589 151.146404 164.865604 
C 150.477418 164.196618 149.569952 163.820733 148.623863 163.820733 
C 147.677774 163.820733 146.770307 164.196618 146.101322 164.865604 
C 145.432336 165.534589 145.056451 166.442056 145.056451 167.388145 
C 145.056451 168.334233 145.432336 169.2417 146.101322 169.910686 
C 146.770307 170.579672 147.677774 170.955557 148.623863 170.955557 
z
" clip-path="url(#pe81f534073)" style="fill: #a8dadc; fill-opacity: 0.85; stroke: #000000; stroke-opacity: 0.85; stroke-width: 0.6"/>
    <path d="M 71.935893 181.189221 
C 72.700002 181.189221 73.432917 180.885637 73.973224 180.345331 
C 74.51353 179.805025 74.817113 179.07211 74.817113 178.308001 
C 74.817113 177.543893 74.51353 176.810977 73.973224 176.270671 
C 73.432917 175.730365 72.700002 175.426781 71.935893 175.426781 
C 71.171785 175.426781 70.438869 175.730365 69.898563 176.270671 
C 69.358257 176.810977 69.054673 177.543893 69.054673 178.308001 
C 69.054673 179.07211 69.358257 179.805025 69.898563 180.345331 
C 70.438869 180.885637 71.171785 181.189221 71.935893 181.189221 
z
" clip-path="url(#pe81f534073)" style="fill: #a8dadc; fill-opacity: 0.85; stroke: #000000; stroke-opacity: 0.85; stroke-width: 0.6"/>
    <path d="M 204.737011 203.225184 
C 206.357605 203.225184 207.912041 202.581315 209.057974 201.435382 
C 210.203906 200.28945 210.847775 198.735014 210.847775 197.11442 
C 210.847775 195.493827 210.203906 193.939391 209.057974 192.793458 
C 207.912041 191.647525 206.357605 191.003657 204.737011 191.003657 
C 203.116418 191.003657 201.561982 191.647525 200.416049 192.793458 
C 199.270117 193.939391 198.626248 195.493827 198.626248 197.11442 
C 198.626248 198.735014 199.270117 200.28945 200.416049 201.435382 
C 201.561982 202.581315 203.116418 203.225184 204.737011 203.225184 
z
" clip-path="url(#pe81f534073)" style="fill: #f4a261; fill-opacity: 0.85; stroke: #000000; stroke-opacity: 0.85; stroke-width: 0.6"/>
    <path d="M 94.113947 165.634474 
C 95.000326 165.634474 95.850519 165.282312 96.477283 164.655548 
C 97.104047 164.028784 97.456209 163.17859 97.456209 162.292212 
C 97.456209 161.405834 97.104047 160.55564 96.477283 159.928876 
C 95.850519 159.302112 95.000326 158.94995 94.113947 158.94995 
C 93.227569 158.94995 92.377375 159.302112 91.750611 159.928876 
C 91.123847 160.55564 90.771685 161.405834 90.771685 162.292212 
C 90.771685 163.17859 91.123847 164.028784 91.750611 164.655548 
C 92.377375 165.282312 93.227569 165.634474 94.113947 165.634474 
z
" clip-path="url(#pe81f534073)" style="fill: #a8dadc; fill-opacity: 0.85; stroke: #000000; stroke-opacity: 0.85; stroke-width: 0.6"/>
    <path d="M 113.352741 193.019752 
C 114.680139 193.019752 115.953348 192.492371 116.89196 191.553759 
C 117.830572 190.615147 118.357953 189.341938 118.357953 188.01454 
C 118.357953 186.687142 117.830572 185.413933 116.89196 184.475321 
C 115.953348 183.536709 114.680139 183.009328 113.352741 183.009328 
C 112.025343 183.009328 110.752134 183.536709 109.813522 184.475321 
C 108.87491 185.413933 108.34753 186.687142 108.34753 188.01454 
C 108.34753 189.341938 108.87491 190.615147 109.813522 191.553759 
C 110.752134 192.492371 112.025343 193.019752 113.352741 193.019752 
z
" clip-path="url(#pe81f534073)" style="fill: #457b9d; fill-opacity: 0.85; stroke: #000000; stroke-opacity: 0.85; stroke-width: 0.6"/>
    <path d="M 215.42523 212.11104 
C 216.5064 212.11104 217.543434 211.681486 218.307937 210.916984 
C 219.07244 210.152481 219.501994 209.115447 219.501994 208.034276 
C 219.501994 206.953106 219.07244 205.916072 218.307937 205.151569 
C 217.543434 204.387067 216.5064 203.957513 215.42523 203.957513 
C 214.34406 203.957513 213.307026 204.387067 212.542523 205.151569 
C 211.77802 205.916072 211.348467 206.953106 211.348467 208.034276 
C 211.348467 209.115447 211.77802 210.152481 212.542523 210.916984 
C 213.307026 211.681486 214.34406 212.11104 215.42523 212.11104 
z
" clip-path="url(#pe81f534073)" style="fill: #a8dadc; fill-opacity: 0.85; stroke: #000000; stroke-opacity: 0.85; stroke-width: 0.6"/>
    <path d="M 110.146275 154.284911 
C 111.111759 154.284911 112.03783 153.90132 112.72053 153.218619 
C 113.40323 152.535919 113.786821 151.609849 113.786821 150.644365 
C 113.786821 149.678881 113.40323 148.752811 112.72053 148.070111 
C 112.03783 147.38741 111.111759 147.00382 110.146275 147.00382 
C 109.180791 147.00382 108.254721 147.38741 107.572021 148.070111 
C 106.889321 148.752811 106.50573 149.678881 106.50573 150.644365 
C 106.50573 151.609849 106.889321 152.535919 107.572021 153.218619 
C 108.254721 153.90132 109.180791 154.284911 110.146275 154.284911 
z
" clip-path="url(#pe81f534073)" style="fill: #a8dadc; fill-opacity: 0.85; stroke: #000000; stroke-opacity: 0.85; stroke-width: 0.6"/>
    <path d="M 76.745592 192.307108 
C 77.530041 192.307108 78.282467 191.995443 78.837157 191.440754 
C 79.391846 190.886064 79.703511 190.133638 79.703511 189.349189 
C 79.703511 188.56474 79.391846 187.812314 78.837157 187.257624 
C 78.282467 186.702935 77.530041 186.39127 76.745592 186.39127 
C 75.961143 186.39127 75.208717 186.702935 74.654027 187.257624 
C 74.099338 187.812314 73.787673 188.56474 73.787673 189.349189 
C 73.787673 190.133638 74.099338 190.886064 74.654027 191.440754 
C 75.208717 191.995443 75.961143 192.307108 76.745592 192.307108 
z
" clip-path="url(#pe81f534073)" style="fill: #a8dadc; fill-opacity: 0.85; stroke: #000000; stroke-opacity: 0.85; stroke-width: 0.6"/>
    <path d="M 192.712765 230.964277 
C 193.838529 230.964277 194.918337 230.517006 195.714372 229.720971 
C 196.510407 228.924935 196.957678 227.845128 196.957678 226.719364 
C 196.957678 225.5936 196.510407 224.513793 195.714372 223.717757 
C 194.918337 222.921722 193.838529 222.474451 192.712765 222.474451 
C 191.587001 222.474451 190.507194 222.921722 189.711159 223.717757 
C 188.915123 224.513793 188.467852 225.5936 188.467852 226.719364 
C 188.467852 227.845128 188.915123 228.924935 189.711159 229.720971 
C 190.507194 230.517006 191.587001 230.964277 192.712765 230.964277 
z
" clip-path="url(#pe81f534073)" style="fill: #a8dadc; fill-opacity: 0.85; stroke: #000000; stroke-opacity: 0.85; stroke-width: 0.6"/>
    <path d="M 178.550875 105.604352 
C 179.798921 105.604352 180.996018 105.108499 181.878519 104.225997 
C 182.761021 103.343496 183.256875 102.146399 183.256875 100.898353 
C 183.256875 99.650307 182.761021 98.453211 181.878519 97.570709 
C 180.996018 96.688208 179.798921 96.192354 178.550875 96.192354 
C 177.30283 96.192354 176.105733 96.688208 175.223232 97.570709 
C 174.34073 98.453211 173.844876 99.650307 173.844876 100.898353 
C 173.844876 102.146399 174.34073 103.343496 175.223232 104.225997 
C 176.105733 105.108499 177.30283 105.604352 178.550875 105.604352 
z
" clip-path="url(#pe81f534073)" style="fill: #a8dadc; fill-opacity: 0.85; stroke: #000000; stroke-opacity: 0.85; stroke-width: 0.6"/>
    <path d="M 68.462222 186.919781 
C 69.20157 186.919781 69.910736 186.626035 70.433534 186.103236 
C 70.956333 185.580438 71.250079 184.871273 71.250079 184.131924 
C 71.250079 183.392576 70.956333 182.68341 70.433534 182.160612 
C 69.910736 181.637814 69.20157 181.344068 68.462222 181.344068 
C 67.722874 181.344068 67.013708 181.637814 66.49091 182.160612 
C 65.968112 182.68341 65.674366 183.392576 65.674366 184.131924 
C 65.674366 184.871273 65.968112 185.580438 66.49091 186.103236 
C 67.013708 186.626035 67.722874 186.919781 68.462222 186.919781 
z
" clip-path="url(#pe81f534073)" style="fill: #a8dadc; fill-opacity: 0.85; stroke: #000000; stroke-opacity: 0.85; stroke-width: 0.6"/>
    <path d="M 130.186686 140.06666 
C 131.242752 140.06666 132.255706 139.64708 133.002458 138.900329 
C 133.749209 138.153577 134.168788 137.140623 134.168788 136.084557 
C 134.168788 135.028491 133.749209 134.015536 133.002458 133.268785 
C 132.255706 132.522033 131.242752 132.102454 130.186686 132.102454 
C 129.13062 132.102454 128.117665 132.522033 127.370914 133.268785 
C 126.624162 134.015536 126.204583 135.028491 126.204583 136.084557 
C 126.204583 137.140623 126.624162 138.153577 127.370914 138.900329 
C 128.117665 139.64708 129.13062 140.06666 130.186686 140.06666 
z
" clip-path="url(#pe81f534073)" style="fill: #a8dadc; fill-opacity: 0.85; stroke: #000000; stroke-opacity: 0.85; stroke-width: 0.6"/>
    <path d="M 176.947643 106.794847 
C 178.189636 106.794847 179.380927 106.301398 180.259149 105.423176 
C 181.13737 104.544955 181.630819 103.353663 181.630819 102.11167 
C 181.630819 100.869677 181.13737 99.678386 180.259149 98.800165 
C 179.380927 97.921943 178.189636 97.428494 176.947643 97.428494 
C 175.70565 97.428494 174.514358 97.921943 173.636137 98.800165 
C 172.757915 99.678386 172.264466 100.869677 172.264466 102.11167 
C 172.264466 103.353663 172.757915 104.544955 173.636137 105.423176 
C 174.514358 106.301398 175.70565 106.794847 176.947643 106.794847 
z
" clip-path="url(#pe81f534073)" style="fill: #a8dadc; fill-opacity: 0.85; stroke: #000000; stroke-opacity: 0.85; stroke-width: 0.6"/>
    <path d="M 89.037043 183.088069 
C 89.822069 183.088069 90.575047 182.776175 91.130144 182.221078 
C 91.685241 181.665981 91.997135 180.913003 91.997135 180.127977 
C 91.997135 179.342952 91.685241 178.589973 91.130144 178.034876 
C 90.575047 177.479779 89.822069 177.167885 89.037043 177.167885 
C 88.252018 177.167885 87.499039 177.479779 86.943942 178.034876 
C 86.388846 178.589973 86.076952 179.342952 86.076952 180.127977 
C 86.076952 180.913003 86.388846 181.665981 86.943942 182.221078 
C 87.499039 182.776175 88.252018 183.088069 89.037043 183.088069 
z
" clip-path="url(#pe81f534073)" style="fill: #a8dadc; fill-opacity: 0.85; stroke: #000000; stroke-opacity: 0.85; stroke-width: 0.6"/>
   </g>
   <g id="text_15">
    <text style="font-weight: 700; font-size: 8px; font-family: 'Liberation Sans', 'Arimo', 'DejaVu Sans'; text-anchor: start" x="433.9224" y="71.054693" transform="rotate(-0 433.9224 71.054693)">HIS63</text>
   </g>
   <g id="text_16">
    <text style="font-weight: 700; font-size: 8px; font-family: 'Liberation Sans', 'Arimo', 'DejaVu Sans'; text-anchor: start" x="224.166107" y="334.708557" transform="rotate(-0 224.166107 334.708557)">LYS64</text>
   </g>
   <g id="text_17">
    <text style="font-weight: 700; font-size: 8px; font-family: 'Liberation Sans', 'Arimo', 'DejaVu Sans'; text-anchor: start" x="388.49747" y="278.289299" transform="rotate(-0 388.49747 278.289299)">GLN46</text>
   </g>
   <g id="text_18">
    <text style="font-weight: 700; font-size: 8px; font-family: 'Liberation Sans', 'Arimo', 'DejaVu Sans'; text-anchor: start" x="209.737011" y="193.11442" transform="rotate(-0 209.737011 193.11442)">GLU93</text>
   </g>
   <g id="text_19">
    <text style="font-weight: 700; font-size: 8px; font-family: 'Liberation Sans', 'Arimo', 'DejaVu Sans'; text-anchor: start" x="249.016215" y="140.092451" transform="rotate(-0 249.016215 140.092451)">ASP78</text>
   </g>
   <g id="text_20">
    <text style="font-weight: 700; font-size: 8px; font-family: 'Liberation Sans', 'Arimo', 'DejaVu Sans'; text-anchor: start" x="199.048793" y="188.867809" transform="rotate(-0 199.048793 188.867809)">GLY76</text>
   </g>
   <g id="text_21">
    <text style="font-weight: 700; font-size: 8px; font-family: 'Liberation Sans', 'Arimo', 'DejaVu Sans'; text-anchor: start" x="118.352741" y="184.01454" transform="rotate(-0 118.352741 184.01454)">ASP120</text>
   </g>
   <g id="text_22">
    <text style="font-weight: 700; font-size: 8px; font-family: 'Liberation Sans', 'Arimo', 'DejaVu Sans'; text-anchor: start" x="89.49455" y="181.830569" transform="rotate(-0 89.49455 181.830569)">LYS61</text>
   </g>
   <g id="text_23">
    <text style="font-weight: 700; font-size: 12px; font-family: 'Liberation Sans', 'Arimo', 'DejaVu Sans'; text-anchor: middle" x="247.623489" y="55.872" transform="rotate(-0 247.623489 55.872)">Chain F (TNF-α)</text>
   </g>
  </g>
  <g id="axes_2">
   <g id="patch_5">
    <path d="M 510.794688 351.89125 
L 909.652291 351.89125 
L 909.652291 61.872 
L 510.794688 61.872 
z
" style="fill: #ffffff"/>
   </g>
   <g id="matplotlib.axis_3">
    <g id="xtick_9">
     <g id="line2d_15">
      <g>
       <use xlink:href="#m1cc5701562" x="528.391346" y="351.89125" style="stroke: #000000; stroke-width: 0.8"/>
      </g>
     </g>
     <g id="text_24">
      <text style="font-size: 10px; font-family: 'Liberation Sans', 'Arimo', 'DejaVu Sans'; text-anchor: middle" x="528.391346" y="366.138125" transform="rotate(-0 528.391346 366.138125)">0</text>
     </g>
    </g>
    <g id="xtick_10">
     <g id="line2d_16">
      <g>
       <use xlink:href="#m1cc5701562" x="581.714555" y="351.89125" style="stroke: #000000; stroke-width: 0.8"/>
      </g>
     </g>
     <g id="text_25">
      <text style="font-size: 10px; font-family: 'Liberation Sans', 'Arimo', 'DejaVu Sans'; text-anchor: middle" x="581.714555" y="366.138125" transform="rotate(-0 581.714555 366.138125)">20</text>
     </g>
    </g>
    <g id="xtick_11">
     <g id="line2d_17">
      <g>
       <use xlink:href="#m1cc5701562" x="635.037764" y="351.89125" style="stroke: #000000; stroke-width: 0.8"/>
      </g>
     </g>
     <g id="text_26">
      <text style="font-size: 10px; font-family: 'Liberation Sans', 'Arimo', 'DejaVu Sans'; text-anchor: middle" x="635.037764" y="366.138125" transform="rotate(-0 635.037764 366.138125)">40</text>
     </g>
    </g>
    <g id="xtick_12">
     <g id="line2d_18">
      <g>
       <use xlink:href="#m1cc5701562" x="688.360973" y="351.89125" style="stroke: #000000; stroke-width: 0.8"/>
      </g>
     </g>
     <g id="text_27">
      <text style="font-size: 10px; font-family: 'Liberation Sans', 'Arimo', 'DejaVu Sans'; text-anchor: middle" x="688.360973" y="366.138125" transform="rotate(-0 688.360973 366.138125)">60</text>
     </g>
    </g>
    <g id="xtick_13">
     <g id="line2d_19">
      <g>
       <use xlink:href="#m1cc5701562" x="741.684182" y="351.89125" style="stroke: #000000; stroke-width: 0.8"/>
      </g>
     </g>
     <g id="text_28">
      <text style="font-size: 10px; font-family: 'Liberation Sans', 'Arimo', 'DejaVu Sans'; text-anchor: middle" x="741.684182" y="366.138125" transform="rotate(-0 741.684182 366.138125)">80</text>
     </g>
    </g>
    <g id="xtick_14">
     <g id="line2d_20">
      <g>
       <use xlink:href="#m1cc5701562" x="795.007391" y="351.89125" style="stroke: #000000; stroke-width: 0.8"/>
      </g>
     </g>
     <g id="text_29">
      <text style="font-size: 10px; font-family: 'Liberation Sans', 'Arimo', 'DejaVu Sans'; text-anchor: middle" x="795.007391" y="366.138125" transform="rotate(-0 795.007391 366.138125)">100</text>
     </g>
    </g>
    <g id="xtick_15">
     <g id="line2d_21">
      <g>
       <use xlink:href="#m1cc5701562" x="848.3306" y="351.89125" style="stroke: #000000; stroke-width: 0.8"/>
      </g>
     </g>
     <g id="text_30">
      <text style="font-size: 10px; font-family: 'Liberation Sans', 'Arimo', 'DejaVu Sans'; text-anchor: middle" x="848.3306" y="366.138125" transform="rotate(-0 848.3306 366.138125)">120</text>
     </g>
    </g>
    <g id="xtick_16">
     <g id="line2d_22">
      <g>
       <use xlink:href="#m1cc5701562" x="901.653809" y="351.89125" style="stroke: #000000; stroke-width: 0.8"/>
      </g>
     </g>
     <g id="text_31">
      <text style="font-size: 10px; font-family: 'Liberation Sans', 'Arimo', 'DejaVu Sans'; text-anchor: middle" x="901.653809" y="366.138125" transform="rotate(-0 901.653809 366.138125)">140</text>
     </g>
    </g>
    <g id="text_32">
     <text style="font-size: 11px; font-family: 'Liberation Sans', 'Arimo', 'DejaVu Sans'; text-anchor: middle" x="710.223489" y="381.805469" transform="rotate(-0 710.223489 381.805469)">Buried Surface Area (Å²)</text>
    </g>
   </g>
   <g id="matplotlib.axis_4">
    <g id="ytick_5">
     <g id="line2d_23">
      <g>
       <use xlink:href="#ma7034f1485" x="510.794688" y="302.887332" style="stroke: #000000; stroke-width: 0.8"/>
      </g>
     </g>
     <g id="text_33">
      <text style="font-size: 10px; font-family: 'Liberation Sans', 'Arimo', 'DejaVu Sans'; text-anchor: end" x="503.794688" y="306.510769" transform="rotate(-0 503.794688 306.510769)">−1.0</text>
     </g>
    </g>
    <g id="ytick_6">
     <g id="line2d_24">
      <g>
       <use xlink:href="#ma7034f1485" x="510.794688" y="242.58224" style="stroke: #000000; stroke-width: 0.8"/>
      </g>
     </g>
     <g id="text_34">
      <text style="font-size: 10px; font-family: 'Liberation Sans', 'Arimo', 'DejaVu Sans'; text-anchor: end" x="503.794688" y="246.205677" transform="rotate(-0 503.794688 246.205677)">−0.5</text>
     </g>
    </g>
    <g id="ytick_7">
     <g id="line2d_25">
      <g>
       <use xlink:href="#ma7034f1485" x="510.794688" y="182.277147" style="stroke: #000000; stroke-width: 0.8"/>
      </g>
     </g>
     <g id="text_35">
      <text style="font-size: 10px; font-family: 'Liberation Sans', 'Arimo', 'DejaVu Sans'; text-anchor: end" x="503.794688" y="185.900585" transform="rotate(-0 503.794688 185.900585)">0.0</text>
     </g>
    </g>
    <g id="ytick_8">
     <g id="line2d_26">
      <g>
       <use xlink:href="#ma7034f1485" x="510.794688" y="121.972055" style="stroke: #000000; stroke-width: 0.8"/>
      </g>
     </g>
     <g id="text_36">
      <text style="font-size: 10px; font-family: 'Liberation Sans', 'Arimo', 'DejaVu Sans'; text-anchor: end" x="503.794688" y="125.595493" transform="rotate(-0 503.794688 125.595493)">0.5</text>
     </g>
    </g>
    <g id="text_37">
     <text style="font-size: 11px; font-family: 'Liberation Sans', 'Arimo', 'DejaVu Sans'; text-anchor: middle" x="477.771563" y="206.881625" transform="rotate(-90 477.771563 206.881625)">Solvation Energy Contribution (kcal/mol)</text>
    </g>
   </g>
   <g id="line2d_27">
    <path d="M 510.794688 182.277147 
L 909.652291 182.277147 
" clip-path="url(#p656bb39795)" style="fill: none; stroke-dasharray: 2.96,1.28; stroke-dashoffset: 0; stroke: #808080; stroke-opacity: 0.6; stroke-width: 0.8"/>
   </g>
   <g id="line2d_28">
    <path d="M 608.37616 351.89125 
L 608.37616 61.872 
" clip-path="url(#p656bb39795)" style="fill: none; stroke-dasharray: 0.8,1.32; stroke-dashoffset: 0; stroke: #808080; stroke-opacity: 0.6; stroke-width: 0.8"/>
   </g>
   <g id="patch_6">
    <path d="M 510.794688 351.89125 
L 510.794688 61.872 
" style="fill: none; stroke: #000000; stroke-width: 0.8; stroke-linejoin: miter; stroke-linecap: square"/>
   </g>
   <g id="patch_7">
    <path d="M 510.794688 351.89125 
L 909.652291 351.89125 
" style="fill: none; stroke: #000000; stroke-width: 0.8; stroke-linejoin: miter; stroke-linecap: square"/>
   </g>
   <g id="PathCollection_2">
    <path d="M 590.779501 141.002079 
C 591.828048 141.002079 592.83379 140.585486 593.575225 139.844052 
C 594.316659 139.102617 594.733251 138.096875 594.733251 137.048328 
C 594.733251 135.999781 594.316659 134.994039 593.575225 134.252604 
C 592.83379 133.51117 591.828048 133.094578 590.779501 133.094578 
C 589.730954 133.094578 588.725212 133.51117 587.983777 134.252604 
C 587.242343 134.994039 586.825751 135.999781 586.825751 137.048328 
C 586.825751 138.096875 587.242343 139.102617 587.983777 139.844052 
C 588.725212 140.585486 589.730954 141.002079 590.779501 141.002079 
z
" clip-path="url(#p656bb39795)" style="fill: #a8dadc; fill-opacity: 0.85; stroke: #000000; stroke-opacity: 0.85; stroke-width: 0.6"/>
    <path d="M 844.33136 288.190962 
C 846.159366 288.190962 847.912748 287.464688 849.205343 286.172092 
C 850.497939 284.879497 851.224213 283.126115 851.224213 281.298109 
C 851.224213 279.470103 850.497939 277.716721 849.205343 276.424126 
C 847.912748 275.13153 846.159366 274.405255 844.33136 274.405255 
C 842.503354 274.405255 840.749972 275.13153 839.457376 276.424126 
C 838.164781 277.716721 837.438506 279.470103 837.438506 281.298109 
C 837.438506 283.126115 838.164781 284.879497 839.457376 286.172092 
C 840.749972 287.464688 842.503354 288.190962 844.33136 288.190962 
z
" clip-path="url(#p656bb39795)" style="fill: #457b9d; fill-opacity: 0.85; stroke: #000000; stroke-opacity: 0.85; stroke-width: 0.6"/>
    <path d="M 587.580108 155.697712 
C 588.559695 155.697712 589.499291 155.308518 590.191963 154.615846 
C 590.884635 153.923174 591.273829 152.983577 591.273829 152.003991 
C 591.273829 151.024405 590.884635 150.084808 590.191963 149.392136 
C 589.499291 148.699464 588.559695 148.31027 587.580108 148.31027 
C 586.600522 148.31027 585.660926 148.699464 584.968254 149.392136 
C 584.275582 150.084808 583.886388 151.024405 583.886388 152.003991 
C 583.886388 152.983577 584.275582 153.923174 584.968254 154.615846 
C 585.660926 155.308518 586.600522 155.697712 587.580108 155.697712 
z
" clip-path="url(#p656bb39795)" style="fill: #a8dadc; fill-opacity: 0.85; stroke: #000000; stroke-opacity: 0.85; stroke-width: 0.6"/>
    <path d="M 545.988005 215.150904 
C 546.901596 215.150904 547.777892 214.787931 548.423898 214.141925 
C 549.069904 213.495919 549.432877 212.619623 549.432877 211.706032 
C 549.432877 210.792442 549.069904 209.916146 548.423898 209.27014 
C 547.777892 208.624134 546.901596 208.26116 545.988005 208.26116 
C 545.074415 208.26116 544.198119 208.624134 543.552113 209.27014 
C 542.906107 209.916146 542.543133 210.792442 542.543133 211.706032 
C 542.543133 212.619623 542.906107 213.495919 543.552113 214.141925 
C 544.198119 214.787931 545.074415 215.150904 545.988005 215.150904 
z
" clip-path="url(#p656bb39795)" style="fill: #a8dadc; fill-opacity: 0.85; stroke: #000000; stroke-opacity: 0.85; stroke-width: 0.6"/>
    <path d="M 648.101951 129.871536 
C 649.269318 129.871536 650.38903 129.407736 651.214483 128.582283 
C 652.039936 127.756829 652.503736 126.637117 652.503736 125.46975 
C 652.503736 124.302383 652.039936 123.182671 651.214483 122.357218 
C 650.38903 121.531765 649.269318 121.067965 648.101951 121.067965 
C 646.934584 121.067965 645.814872 121.531765 644.989418 122.357218 
C 644.163965 123.182671 643.700165 124.302383 643.700165 125.46975 
C 643.700165 126.637117 644.163965 127.756829 644.989418 128.582283 
C 645.814872 129.407736 646.934584 129.871536 648.101951 129.871536 
z
" clip-path="url(#p656bb39795)" style="fill: #a8dadc; fill-opacity: 0.85; stroke: #000000; stroke-opacity: 0.85; stroke-width: 0.6"/>
    <path d="M 544.654925 189.410081 
C 545.938864 189.410081 547.170388 188.899967 548.078269 187.992085 
C 548.986151 187.084204 549.496265 185.852679 549.496265 184.568741 
C 549.496265 183.284803 548.986151 182.053278 548.078269 181.145397 
C 547.170388 180.237515 545.938864 179.727401 544.654925 179.727401 
C 543.370987 179.727401 542.139462 180.237515 541.231581 181.145397 
C 540.323699 182.053278 539.813585 183.284803 539.813585 184.568741 
C 539.813585 185.852679 540.323699 187.084204 541.231581 187.992085 
C 542.139462 188.899967 543.370987 189.410081 544.654925 189.410081 
z
" clip-path="url(#p656bb39795)" style="fill: #457b9d; fill-opacity: 0.85; stroke: #000000; stroke-opacity: 0.85; stroke-width: 0.6"/>
    <path d="M 528.924579 184.783913 
C 529.653353 184.783913 530.352377 184.494368 530.867698 183.979047 
C 531.38302 183.463725 531.672565 182.764701 531.672565 182.035927 
C 531.672565 181.307152 531.38302 180.608129 530.867698 180.092807 
C 530.352377 179.577486 529.653353 179.287941 528.924579 179.287941 
C 528.195804 179.287941 527.49678 179.577486 526.981459 180.092807 
C 526.466137 180.608129 526.176592 181.307152 526.176592 182.035927 
C 526.176592 182.764701 526.466137 183.463725 526.981459 183.979047 
C 527.49678 184.494368 528.195804 184.783913 528.924579 184.783913 
z
" clip-path="url(#p656bb39795)" style="fill: #a8dadc; fill-opacity: 0.85; stroke: #000000; stroke-opacity: 0.85; stroke-width: 0.6"/>
    <path d="M 891.5224 83.594474 
C 893.787176 83.594474 895.959498 82.694669 897.560937 81.09323 
C 899.162375 79.491791 900.062181 77.31947 900.062181 75.054693 
C 900.062181 72.789917 899.162375 70.617595 897.560937 69.016156 
C 895.959498 67.414718 893.787176 66.514912 891.5224 66.514912 
C 889.257623 66.514912 887.085302 67.414718 885.483863 69.016156 
C 883.882424 70.617595 882.982619 72.789917 882.982619 75.054693 
C 882.982619 77.31947 883.882424 79.491791 885.483863 81.09323 
C 887.085302 82.694669 889.257623 83.594474 891.5224 83.594474 
z
" clip-path="url(#p656bb39795)" style="fill: #e63946; fill-opacity: 0.85; stroke: #000000; stroke-opacity: 0.85; stroke-width: 0.6"/>
    <path d="M 680.629108 346.163277 
C 682.606123 346.163277 684.502431 345.377801 685.900392 343.97984 
C 687.298352 342.58188 688.083829 340.685572 688.083829 338.708557 
C 688.083829 336.731542 687.298352 334.835234 685.900392 333.437273 
C 684.502431 332.039313 682.606123 331.253836 680.629108 331.253836 
C 678.652093 331.253836 676.755785 332.039313 675.357825 333.437273 
C 673.959864 334.835234 673.174388 336.731542 673.174388 338.708557 
C 673.174388 340.685572 673.959864 342.58188 675.357825 343.97984 
C 676.755785 345.377801 678.652093 346.163277 680.629108 346.163277 
z
" clip-path="url(#p656bb39795)" style="fill: #f4a261; fill-opacity: 0.85; stroke: #000000; stroke-opacity: 0.85; stroke-width: 0.6"/>
    <path d="M 540.389068 178.257012 
C 541.178115 178.257012 541.934951 177.94352 542.492892 177.38558 
C 543.050832 176.827639 543.364324 176.070803 543.364324 175.281757 
C 543.364324 174.49271 543.050832 173.735874 542.492892 173.177934 
C 541.934951 172.619993 541.178115 172.306502 540.389068 172.306502 
C 539.600022 172.306502 538.843186 172.619993 538.285245 173.177934 
C 537.727305 173.735874 537.413813 174.49271 537.413813 175.281757 
C 537.413813 176.070803 537.727305 176.827639 538.285245 177.38558 
C 538.843186 177.94352 539.600022 178.257012 540.389068 178.257012 
z
" clip-path="url(#p656bb39795)" style="fill: #a8dadc; fill-opacity: 0.85; stroke: #000000; stroke-opacity: 0.85; stroke-width: 0.6"/>
    <path d="M 597.978134 135.932278 
C 599.057561 135.932278 600.092922 135.503417 600.856192 134.740148 
C 601.619461 133.976878 602.048322 132.941517 602.048322 131.86209 
C 602.048322 130.782664 601.619461 129.747303 600.856192 128.984033 
C 600.092922 128.220763 599.057561 127.791902 597.978134 127.791902 
C 596.898708 127.791902 595.863347 128.220763 595.100077 128.984033 
C 594.336807 129.747303 593.907946 130.782664 593.907946 131.86209 
C 593.907946 132.941517 594.336807 133.976878 595.100077 134.740148 
C 595.863347 135.503417 596.898708 135.932278 597.978134 135.932278 
z
" clip-path="url(#p656bb39795)" style="fill: #a8dadc; fill-opacity: 0.85; stroke: #000000; stroke-opacity: 0.85; stroke-width: 0.6"/>
    <path d="M 656.90028 197.298511 
C 658.325097 197.298511 659.691749 196.732426 660.699246 195.724928 
C 661.706744 194.717431 662.272829 193.350779 662.272829 191.925962 
C 662.272829 190.501145 661.706744 189.134494 660.699246 188.126996 
C 659.691749 187.119499 658.325097 186.553413 656.90028 186.553413 
C 655.475463 186.553413 654.108812 187.119499 653.101314 188.126996 
C 652.093817 189.134494 651.527731 190.501145 651.527731 191.925962 
C 651.527731 193.350779 652.093817 194.717431 653.101314 195.724928 
C 654.108812 196.732426 655.475463 197.298511 656.90028 197.298511 
z
" clip-path="url(#p656bb39795)" style="fill: #457b9d; fill-opacity: 0.85; stroke: #000000; stroke-opacity: 0.85; stroke-width: 0.6"/>
    <path d="M 604.376919 182.922749 
C 605.251831 182.922749 606.091027 182.575143 606.709683 181.956487 
C 607.328339 181.337831 607.675945 180.498635 607.675945 179.623723 
C 607.675945 178.748811 607.328339 177.909616 606.709683 177.29096 
C 606.091027 176.672304 605.251831 176.324697 604.376919 176.324697 
C 603.502007 176.324697 602.662812 176.672304 602.044156 177.29096 
C 601.4255 177.909616 601.077893 178.748811 601.077893 179.623723 
C 601.077893 180.498635 601.4255 181.337831 602.044156 181.956487 
C 602.662812 182.575143 603.502007 182.922749 604.376919 182.922749 
z
" clip-path="url(#p656bb39795)" style="fill: #a8dadc; fill-opacity: 0.85; stroke: #000000; stroke-opacity: 0.85; stroke-width: 0.6"/>
    <path d="M 703.824704 149.900766 
C 705.378011 149.900766 706.867908 149.28363 707.966262 148.185276 
C 709.064616 147.086923 709.681751 145.597026 709.681751 144.043719 
C 709.681751 142.490412 709.064616 141.000515 707.966262 139.902161 
C 706.867908 138.803807 705.378011 138.186672 703.824704 138.186672 
C 702.271397 138.186672 700.7815 138.803807 699.683146 139.902161 
C 698.584792 141.000515 697.967657 142.490412 697.967657 144.043719 
C 697.967657 145.597026 698.584792 147.086923 699.683146 148.185276 
C 700.7815 149.28363 702.271397 149.900766 703.824704 149.900766 
z
" clip-path="url(#p656bb39795)" style="fill: #457b9d; fill-opacity: 0.85; stroke: #000000; stroke-opacity: 0.85; stroke-width: 0.6"/>
    <path d="M 543.588461 193.131061 
C 544.38785 193.131061 545.154606 192.813461 545.719859 192.248207 
C 546.285112 191.682954 546.602713 190.916198 546.602713 190.116809 
C 546.602713 189.31742 546.285112 188.550665 545.719859 187.985411 
C 545.154606 187.420158 544.38785 187.102557 543.588461 187.102557 
C 542.789072 187.102557 542.022316 187.420158 541.457063 187.985411 
C 540.89181 188.550665 540.574209 189.31742 540.574209 190.116809 
C 540.574209 190.916198 540.89181 191.682954 541.457063 192.248207 
C 542.022316 192.813461 542.789072 193.131061 543.588461 193.131061 
z
" clip-path="url(#p656bb39795)" style="fill: #a8dadc; fill-opacity: 0.85; stroke: #000000; stroke-opacity: 0.85; stroke-width: 0.6"/>
    <path d="M 544.654925 158.061614 
C 545.557729 158.061614 546.423679 157.702926 547.062057 157.064547 
C 547.700436 156.426168 548.059124 155.560219 548.059124 154.657415 
C 548.059124 153.754611 547.700436 152.888662 547.062057 152.250283 
C 546.423679 151.611904 545.557729 151.253216 544.654925 151.253216 
C 543.752121 151.253216 542.886172 151.611904 542.247793 152.250283 
C 541.609414 152.888662 541.250726 153.754611 541.250726 154.657415 
C 541.250726 155.560219 541.609414 156.426168 542.247793 157.064547 
C 542.886172 157.702926 543.752121 158.061614 544.654925 158.061614 
z
" clip-path="url(#p656bb39795)" style="fill: #a8dadc; fill-opacity: 0.85; stroke: #000000; stroke-opacity: 0.85; stroke-width: 0.6"/>
    <path d="M 610.242472 170.522558 
C 611.187365 170.522558 612.093686 170.147148 612.761826 169.479008 
C 613.429966 168.810867 613.805376 167.904547 613.805376 166.959654 
C 613.805376 166.014761 613.429966 165.108441 612.761826 164.4403 
C 612.093686 163.77216 611.187365 163.39675 610.242472 163.39675 
C 609.297579 163.39675 608.391259 163.77216 607.723119 164.4403 
C 607.054978 165.108441 606.679568 166.014761 606.679568 166.959654 
C 606.679568 167.904547 607.054978 168.810867 607.723119 169.479008 
C 608.391259 170.147148 609.297579 170.522558 610.242472 170.522558 
z
" clip-path="url(#p656bb39795)" style="fill: #a8dadc; fill-opacity: 0.85; stroke: #000000; stroke-opacity: 0.85; stroke-width: 0.6"/>
    <path d="M 535.056748 180.345465 
C 535.823907 180.345465 536.559749 180.040669 537.102213 179.498205 
C 537.644677 178.955742 537.949472 178.2199 537.949472 177.45274 
C 537.949472 176.68558 537.644677 175.949738 537.102213 175.407275 
C 536.559749 174.864811 535.823907 174.560015 535.056748 174.560015 
C 534.289588 174.560015 533.553746 174.864811 533.011282 175.407275 
C 532.468818 175.949738 532.164023 176.68558 532.164023 177.45274 
C 532.164023 178.2199 532.468818 178.955742 533.011282 179.498205 
C 533.553746 180.040669 534.289588 180.345465 535.056748 180.345465 
z
" clip-path="url(#p656bb39795)" style="fill: #a8dadc; fill-opacity: 0.85; stroke: #000000; stroke-opacity: 0.85; stroke-width: 0.6"/>
    <path d="M 665.965226 202.494566 
C 667.584563 202.494566 669.137795 201.851197 670.282839 200.706152 
C 671.427884 199.561108 672.071253 198.007876 672.071253 196.388539 
C 672.071253 194.769202 671.427884 193.21597 670.282839 192.070926 
C 669.137795 190.925881 667.584563 190.282511 665.965226 190.282511 
C 664.345888 190.282511 662.792657 190.925881 661.647612 192.070926 
C 660.502568 193.21597 659.859198 194.769202 659.859198 196.388539 
C 659.859198 198.007876 660.502568 199.561108 661.647612 200.706152 
C 662.792657 201.851197 664.345888 202.494566 665.965226 202.494566 
z
" clip-path="url(#p656bb39795)" style="fill: #f4a261; fill-opacity: 0.85; stroke: #000000; stroke-opacity: 0.85; stroke-width: 0.6"/>
    <path d="M 556.919263 164.882782 
C 557.807849 164.882782 558.66016 164.529743 559.288486 163.901418 
C 559.916811 163.273093 560.26985 162.420781 560.26985 161.532196 
C 560.26985 160.64361 559.916811 159.791298 559.288486 159.162973 
C 558.66016 158.534648 557.807849 158.181609 556.919263 158.181609 
C 556.030677 158.181609 555.178366 158.534648 554.550041 159.162973 
C 553.921716 159.791298 553.568677 160.64361 553.568677 161.532196 
C 553.568677 162.420781 553.921716 163.273093 554.550041 163.901418 
C 555.178366 164.529743 556.030677 164.882782 556.919263 164.882782 
z
" clip-path="url(#p656bb39795)" style="fill: #a8dadc; fill-opacity: 0.85; stroke: #000000; stroke-opacity: 0.85; stroke-width: 0.6"/>
    <path d="M 575.049154 191.976943 
C 576.374109 191.976943 577.644975 191.450533 578.581859 190.513649 
C 579.518743 189.576765 580.045153 188.305899 580.045153 186.980945 
C 580.045153 185.65599 579.518743 184.385124 578.581859 183.44824 
C 577.644975 182.511356 576.374109 181.984946 575.049154 181.984946 
C 573.7242 181.984946 572.453334 182.511356 571.51645 183.44824 
C 570.579566 184.385124 570.053156 185.65599 570.053156 186.980945 
C 570.053156 188.305899 570.579566 189.576765 571.51645 190.513649 
C 572.453334 191.450533 573.7242 191.976943 575.049154 191.976943 
z
" clip-path="url(#p656bb39795)" style="fill: #457b9d; fill-opacity: 0.85; stroke: #000000; stroke-opacity: 0.85; stroke-width: 0.6"/>
    <path d="M 677.429716 211.684414 
C 678.511513 211.684414 679.549148 211.254612 680.314095 210.489665 
C 681.079041 209.724719 681.508844 208.687084 681.508844 207.605286 
C 681.508844 206.523489 681.079041 205.485853 680.314095 204.720907 
C 679.549148 203.955961 678.511513 203.526158 677.429716 203.526158 
C 676.347918 203.526158 675.310283 203.955961 674.545337 204.720907 
C 673.78039 205.485853 673.350588 206.523489 673.350588 207.605286 
C 673.350588 208.687084 673.78039 209.724719 674.545337 210.489665 
C 675.310283 211.254612 676.347918 211.684414 677.429716 211.684414 
z
" clip-path="url(#p656bb39795)" style="fill: #a8dadc; fill-opacity: 0.85; stroke: #000000; stroke-opacity: 0.85; stroke-width: 0.6"/>
    <path d="M 571.31653 154.896958 
C 572.275671 154.896958 573.195657 154.515887 573.873872 153.837672 
C 574.552087 153.159457 574.933158 152.239471 574.933158 151.28033 
C 574.933158 150.321189 574.552087 149.401203 573.873872 148.722988 
C 573.195657 148.044772 572.275671 147.663702 571.31653 147.663702 
C 570.357389 147.663702 569.437402 148.044772 568.759187 148.722988 
C 568.080972 149.401203 567.699901 150.321189 567.699901 151.28033 
C 567.699901 152.239471 568.080972 153.159457 568.759187 153.837672 
C 569.437402 154.515887 570.357389 154.896958 571.31653 154.896958 
z
" clip-path="url(#p656bb39795)" style="fill: #a8dadc; fill-opacity: 0.85; stroke: #000000; stroke-opacity: 0.85; stroke-width: 0.6"/>
    <path d="M 539.855836 191.997917 
C 540.642588 191.997917 541.397222 191.685338 541.953539 191.12902 
C 542.509857 190.572703 542.822436 189.818069 542.822436 189.031318 
C 542.822436 188.244566 542.509857 187.489932 541.953539 186.933615 
C 541.397222 186.377298 540.642588 186.064718 539.855836 186.064718 
C 539.069085 186.064718 538.314451 186.377298 537.758134 186.933615 
C 537.201816 187.489932 536.889237 188.244566 536.889237 189.031318 
C 536.889237 189.818069 537.201816 190.572703 537.758134 191.12902 
C 538.314451 191.685338 539.069085 191.997917 539.855836 191.997917 
z
" clip-path="url(#p656bb39795)" style="fill: #a8dadc; fill-opacity: 0.85; stroke: #000000; stroke-opacity: 0.85; stroke-width: 0.6"/>
    <path d="M 652.901039 229.805692 
C 654.022713 229.805692 655.098596 229.360046 655.891739 228.566903 
C 656.684882 227.773761 657.130528 226.697877 657.130528 225.576204 
C 657.130528 224.45453 656.684882 223.378647 655.891739 222.585504 
C 655.098596 221.792361 654.022713 221.346715 652.901039 221.346715 
C 651.779366 221.346715 650.703482 221.792361 649.91034 222.585504 
C 649.117197 223.378647 648.671551 224.45453 648.671551 225.576204 
C 648.671551 226.697877 649.117197 227.773761 649.91034 228.566903 
C 650.703482 229.360046 651.779366 229.805692 652.901039 229.805692 
z
" clip-path="url(#p656bb39795)" style="fill: #a8dadc; fill-opacity: 0.85; stroke: #000000; stroke-opacity: 0.85; stroke-width: 0.6"/>
    <path d="M 643.036246 104.033071 
C 644.292176 104.033071 645.496836 103.534084 646.384913 102.646007 
C 647.27299 101.757931 647.771976 100.553271 647.771976 99.29734 
C 647.771976 98.04141 647.27299 96.83675 646.384913 95.948673 
C 645.496836 95.060596 644.292176 94.56161 643.036246 94.56161 
C 641.780315 94.56161 640.575656 95.060596 639.687579 95.948673 
C 638.799502 96.83675 638.300515 98.04141 638.300515 99.29734 
C 638.300515 100.553271 638.799502 101.757931 639.687579 102.646007 
C 640.575656 103.534084 641.780315 104.033071 643.036246 104.033071 
z
" clip-path="url(#p656bb39795)" style="fill: #a8dadc; fill-opacity: 0.85; stroke: #000000; stroke-opacity: 0.85; stroke-width: 0.6"/>
    <path d="M 531.057507 186.391716 
C 531.796855 186.391716 532.506021 186.09797 533.028819 185.575171 
C 533.551617 185.052373 533.845363 184.343208 533.845363 183.603859 
C 533.845363 182.864511 533.551617 182.155345 533.028819 181.632547 
C 532.506021 181.109749 531.796855 180.816003 531.057507 180.816003 
C 530.318159 180.816003 529.608993 181.109749 529.086195 181.632547 
C 528.563397 182.155345 528.269651 182.864511 528.269651 183.603859 
C 528.269651 184.343208 528.563397 185.052373 529.086195 185.575171 
C 529.608993 186.09797 530.318159 186.391716 531.057507 186.391716 
z
" clip-path="url(#p656bb39795)" style="fill: #a8dadc; fill-opacity: 0.85; stroke: #000000; stroke-opacity: 0.85; stroke-width: 0.6"/>
    <path d="M 591.845965 140.413904 
C 592.898457 140.413904 593.907984 139.995745 594.652208 139.25152 
C 595.396433 138.507296 595.814592 137.497769 595.814592 136.445277 
C 595.814592 135.392785 595.396433 134.383258 594.652208 133.639034 
C 593.907984 132.89481 592.898457 132.47665 591.845965 132.47665 
C 590.793473 132.47665 589.783946 132.89481 589.039722 133.639034 
C 588.295498 134.383258 587.877338 135.392785 587.877338 136.445277 
C 587.877338 137.497769 588.295498 138.507296 589.039722 139.25152 
C 589.783946 139.995745 590.793473 140.413904 591.845965 140.413904 
z
" clip-path="url(#p656bb39795)" style="fill: #a8dadc; fill-opacity: 0.85; stroke: #000000; stroke-opacity: 0.85; stroke-width: 0.6"/>
    <path d="M 639.303621 106.754551 
C 640.545614 106.754551 641.736905 106.261102 642.615127 105.38288 
C 643.493349 104.504659 643.986798 103.313367 643.986798 102.071375 
C 643.986798 100.829382 643.493349 99.63809 642.615127 98.759869 
C 641.736905 97.881647 640.545614 97.388198 639.303621 97.388198 
C 638.061628 97.388198 636.870337 97.881647 635.992115 98.759869 
C 635.113894 99.63809 634.620445 100.829382 634.620445 102.071375 
C 634.620445 103.313367 635.113894 104.504659 635.992115 105.38288 
C 636.870337 106.261102 638.061628 106.754551 639.303621 106.754551 
z
" clip-path="url(#p656bb39795)" style="fill: #a8dadc; fill-opacity: 0.85; stroke: #000000; stroke-opacity: 0.85; stroke-width: 0.6"/>
    <path d="M 551.853558 182.23138 
C 552.641076 182.23138 553.396444 181.918496 553.953303 181.361638 
C 554.510162 180.804779 554.823046 180.04941 554.823046 179.261893 
C 554.823046 178.474375 554.510162 177.719007 553.953303 177.162148 
C 553.396444 176.605289 552.641076 176.292405 551.853558 176.292405 
C 551.066041 176.292405 550.310672 176.605289 549.753814 177.162148 
C 549.196955 177.719007 548.884071 178.474375 548.884071 179.261893 
C 548.884071 180.04941 549.196955 180.804779 549.753814 181.361638 
C 550.310672 181.918496 551.066041 182.23138 551.853558 182.23138 
z
" clip-path="url(#p656bb39795)" style="fill: #a8dadc; fill-opacity: 0.85; stroke: #000000; stroke-opacity: 0.85; stroke-width: 0.6"/>
   </g>
   <g id="text_38">
    <text style="font-weight: 700; font-size: 8px; font-family: 'Liberation Sans', 'Arimo', 'DejaVu Sans'; text-anchor: start" x="896.5224" y="71.054693" transform="rotate(-0 896.5224 71.054693)">HIS63</text>
   </g>
   <g id="text_39">
    <text style="font-weight: 700; font-size: 8px; font-family: 'Liberation Sans', 'Arimo', 'DejaVu Sans'; text-anchor: start" x="685.629108" y="334.708557" transform="rotate(-0 685.629108 334.708557)">LYS64</text>
   </g>
   <g id="text_40">
    <text style="font-weight: 700; font-size: 8px; font-family: 'Liberation Sans', 'Arimo', 'DejaVu Sans'; text-anchor: start" x="849.33136" y="277.298109" transform="rotate(-0 849.33136 277.298109)">GLN46</text>
   </g>
   <g id="text_41">
    <text style="font-weight: 700; font-size: 8px; font-family: 'Liberation Sans', 'Arimo', 'DejaVu Sans'; text-anchor: start" x="670.965226" y="192.388539" transform="rotate(-0 670.965226 192.388539)">GLU93</text>
   </g>
   <g id="text_42">
    <text style="font-weight: 700; font-size: 8px; font-family: 'Liberation Sans', 'Arimo', 'DejaVu Sans'; text-anchor: start" x="708.824704" y="140.043719" transform="rotate(-0 708.824704 140.043719)">ASP78</text>
   </g>
   <g id="text_43">
    <text style="font-weight: 700; font-size: 8px; font-family: 'Liberation Sans', 'Arimo', 'DejaVu Sans'; text-anchor: start" x="661.90028" y="187.925962" transform="rotate(-0 661.90028 187.925962)">GLY76</text>
   </g>
   <g id="text_44">
    <text style="font-weight: 700; font-size: 8px; font-family: 'Liberation Sans', 'Arimo', 'DejaVu Sans'; text-anchor: start" x="580.049154" y="182.980945" transform="rotate(-0 580.049154 182.980945)">ASP120</text>
   </g>
   <g id="text_45">
    <text style="font-weight: 700; font-size: 8px; font-family: 'Liberation Sans', 'Arimo', 'DejaVu Sans'; text-anchor: start" x="549.654925" y="180.568741" transform="rotate(-0 549.654925 180.568741)">LYS61</text>
   </g>
   <g id="text_46">
    <text style="font-weight: 700; font-size: 12px; font-family: 'Liberation Sans', 'Arimo', 'DejaVu Sans'; text-anchor: middle" x="710.223489" y="55.872" transform="rotate(-0 710.223489 55.872)">Chain L (TNFR1)</text>
   </g>
  </g>
  <g id="text_47">
   <text style="font-weight: 700; font-size: 13px; font-family: 'Liberation Sans', 'Arimo', 'DejaVu Sans'" transform="translate(329.397578 16.620937)">Interface Residue BSA vs. Solvation Energy</text>
   <text style="font-weight: 700; font-size: 13px; font-family: 'Liberation Sans', 'Arimo', 'DejaVu Sans'" transform="translate(358.794844 30.680437)">(PDB: 8ZUI, TNF–TNFR1 Interface)</text>
  </g>
  <g id="legend_1">
   <g id="patch_8">
    <path d="M 271.471719 406.62 
L 657.737656 406.62 
Q 659.537656 406.62 659.537656 404.82 
L 659.537656 392.830312 
Q 659.537656 391.030312 657.737656 391.030312 
L 271.471719 391.030312 
Q 269.671719 391.030312 269.671719 392.830312 
L 269.671719 404.82 
Q 269.671719 406.62 271.471719 406.62 
z
" style="fill: #ffffff; opacity: 0.8; stroke: #cccccc; stroke-linejoin: miter"/>
   </g>
   <g id="patch_9">
    <path d="M 273.271719 401.1525 
L 291.271719 401.1525 
L 291.271719 394.8525 
L 273.271719 394.8525 
z
" style="fill: #e63946; stroke: #e63946; stroke-linejoin: miter"/>
   </g>
   <g id="text_48">
    <text style="font-size: 9px; font-family: 'Liberation Sans', 'Arimo', 'DejaVu Sans'; text-anchor: start" x="298.471719" y="401.1525" transform="rotate(-0 298.471719 401.1525)">H-bond + Salt bridge</text>
   </g>
   <g id="patch_10">
    <path d="M 399.268906 401.1525 
L 417.268906 401.1525 
L 417.268906 394.8525 
L 399.268906 394.8525 
z
" style="fill: #f4a261; stroke: #f4a261; stroke-linejoin: miter"/>
   </g>
   <g id="text_49">
    <text style="font-size: 9px; font-family: 'Liberation Sans', 'Arimo', 'DejaVu Sans'; text-anchor: start" x="424.468906" y="401.1525" transform="rotate(-0 424.468906 401.1525)">Salt bridge</text>
   </g>
   <g id="patch_11">
    <path d="M 485.493125 401.1525 
L 503.493125 401.1525 
L 503.493125 394.8525 
L 485.493125 394.8525 
z
" style="fill: #457b9d; stroke: #457b9d; stroke-linejoin: miter"/>
   </g>
   <g id="text_50">
    <text style="font-size: 9px; font-family: 'Liberation Sans', 'Arimo', 'DejaVu Sans'; text-anchor: start" x="510.693125" y="401.1525" transform="rotate(-0 510.693125 401.1525)">H-bond</text>
   </g>
   <g id="patch_12">
    <path d="M 558.208906 401.1525 
L 576.208906 401.1525 
L 576.208906 394.8525 
L 558.208906 394.8525 
z
" style="fill: #a8dadc; stroke: #a8dadc; stroke-linejoin: miter"/>
   </g>
   <g id="text_51">
    <text style="font-size: 9px; font-family: 'Liberation Sans', 'Arimo', 'DejaVu Sans'; text-anchor: start" x="583.408906" y="401.1525" transform="rotate(-0 583.408906 401.1525)">Hydrophobic/VdW</text>
   </g>
  </g>
 </g>
 <defs>
  <clipPath id="pe81f534073">
   <rect x="48.194688" y="61.872" width="398.857603" height="290.01925"/>
  </clipPath>
  <clipPath id="p656bb39795">
   <rect x="510.794688" y="61.872" width="398.857603" height="290.01925"/>
  </clipPath>
 </defs>
</svg>
